<svg width="50" height="50" viewBox="0 0 50 50" fill="none" xmlns="http://www.w3.org/2000/svg">
<path d="M35.8429 23.7427H14.1577C13.1233 23.7427 12.2817 24.5842 12.2817 25.6188V30.0121H37.7188V25.6188C37.7188 24.5842 36.8772 23.7427 35.8429 23.7427Z" fill="white"/>
<path d="M46.4435 7.47998H3.55645C1.59541 7.47998 0 9.07549 0 11.0365V23.8635C0 27.2537 2.7582 30.0119 6.14844 30.0119H9.27744V25.6186C9.27744 22.9274 11.4667 20.7382 14.1577 20.7382H35.8429C38.534 20.7382 40.7232 22.9274 40.7232 25.6186V30.0119H43.8515C47.2417 30.0119 49.9999 27.2537 49.9999 23.8635V11.0365C50 9.07549 48.4045 7.47998 46.4435 7.47998ZM12.2818 15.3302C12.2818 16.1598 11.6093 16.8323 10.7797 16.8323C9.9501 16.8323 9.27754 16.1598 9.27754 15.3302V13.5275C9.27754 12.6979 9.9501 12.0254 10.7797 12.0254C11.6093 12.0254 12.2818 12.6979 12.2818 13.5275V15.3302ZM15.9121 15.3302C15.9121 16.1598 15.2396 16.8323 14.41 16.8323C13.5804 16.8323 12.9078 16.1598 12.9078 15.3302V13.5275C12.9078 12.6979 13.5804 12.0254 14.41 12.0254C15.2396 12.0254 15.9121 12.6979 15.9121 13.5275V15.3302Z" fill="white"/>
<path d="M21.444 39.9554L20.4448 38.9562C20.3572 38.8686 20.3572 38.726 20.4448 38.6385C21.0547 38.0286 21.3906 37.2177 21.3906 36.3552C21.3906 35.4927 21.0547 34.6817 20.4448 34.0719L19.6851 33.3121L19.2682 32.8952C18.6818 32.3084 17.7306 32.3084 17.144 32.8951C17.0193 33.0198 16.9229 33.1614 16.8511 33.312C16.5854 33.87 16.6819 34.5575 17.144 35.0195L18.3207 36.1963C18.3751 36.2507 18.3865 36.3128 18.3865 36.3553C18.3865 36.3977 18.3751 36.4598 18.3206 36.5141C17.0617 37.7732 17.0617 39.8218 18.3206 41.0808L19.3197 42.08C19.6131 42.3733 19.9976 42.52 20.3819 42.52C20.7661 42.52 21.1508 42.3734 21.444 42.08C22.0307 41.4932 22.0307 40.5421 21.444 39.9554Z" fill="white"/>
<path d="M27.1506 39.9554L26.1515 38.9563C26.0971 38.9019 26.0857 38.8399 26.0857 38.7975C26.0857 38.7551 26.0971 38.693 26.1515 38.6386C27.4106 37.3797 27.4106 35.3311 26.1515 34.0719L25.3917 33.3122L24.9748 32.8953C24.3883 32.3084 23.4371 32.3084 22.8505 32.8951C22.7258 33.0198 22.6294 33.1614 22.5576 33.312C22.2919 33.87 22.3885 34.5575 22.8505 35.0195L24.0273 36.1963C24.1149 36.2839 24.1149 36.4265 24.0273 36.5141C23.4174 37.124 23.0815 37.935 23.0815 38.7974C23.0815 39.66 23.4174 40.4709 24.0273 41.0807L25.0263 42.0799C25.3196 42.3732 25.7041 42.5199 26.0885 42.5199C26.4729 42.5199 26.8574 42.3732 27.1506 42.08C27.7372 41.4932 27.7372 40.5422 27.1506 39.9554Z" fill="white"/>
<path d="M32.8567 39.9557L31.8575 38.9566C31.8031 38.9022 31.7917 38.8402 31.7917 38.7978C31.7917 38.7553 31.8031 38.6933 31.8575 38.639C32.4674 38.0292 32.8033 37.2182 32.8033 36.3557C32.8033 35.4932 32.4674 34.6823 31.8575 34.0724L31.0978 33.3127L30.6809 32.8958C30.0944 32.3089 29.1432 32.3089 28.5566 32.8956C28.4319 33.0203 28.3355 33.1619 28.2637 33.3125C27.998 33.8705 28.0945 34.558 28.5566 35.02L29.7333 36.1968C29.7877 36.2511 29.7991 36.3133 29.7991 36.3557C29.7991 36.3982 29.7877 36.4602 29.7333 36.5146C29.1235 37.1245 28.7875 37.9355 28.7875 38.7979C28.7875 39.6605 29.1235 40.4714 29.7333 41.0812L30.7324 42.0803C31.0258 42.3737 31.4103 42.5204 31.7945 42.5204C32.1789 42.5204 32.5635 42.3738 32.8567 42.0803C33.4433 41.4935 33.4433 40.5425 32.8567 39.9557Z" fill="white"/>
</svg>
