<svg width="35" height="20" viewBox="0 0 35 20" fill="none" xmlns="http://www.w3.org/2000/svg">
<path d="M15.7499 19.457L0.545585 4.30738C0.193643 3.95699 -0.000243988 3.48925 -0.00024401 2.99051C-0.000244032 2.49177 0.193643 2.02402 0.545585 1.67363L1.66502 0.55797C2.39446 -0.168 3.58 -0.168 4.30833 0.55797L17.076 13.2795L29.8578 0.543853C30.2098 0.193461 30.6789 -1.34103e-06 31.1792 -1.3629e-06C31.6801 -1.38479e-06 32.1492 0.193461 32.5014 0.543853L33.6206 1.65952C33.9725 2.01018 34.1664 2.47765 34.1664 2.97639C34.1664 3.47513 33.9725 3.94287 33.6206 4.29326L18.4024 19.457C18.0493 19.8082 17.5779 20.0011 17.0768 20C16.5738 20.0011 16.1027 19.8082 15.7499 19.457Z" fill="#2F97EB"/>
</svg>
