<svg width="42" height="42" viewBox="0 0 42 42" fill="none" xmlns="http://www.w3.org/2000/svg">
<g clip-path="url(#clip0_631_116)">
<path d="M11.7028 30.7622C10.5339 33.0937 9.91162 35.6838 9.91162 38.3405C9.91162 40.3586 11.5535 42.0001 13.5716 42.0001C15.5894 42.0001 17.2313 40.3582 17.2313 38.3401C17.2313 37.7345 17.2877 37.1379 17.397 36.555C14.7675 35.5319 12.6815 33.4132 11.7028 30.7622Z" fill="white"/>
<path d="M24.5332 36.555C24.6422 37.1379 24.6985 37.7345 24.6985 38.3405C24.6985 40.3582 26.3405 42.0001 28.3585 42.0001C30.3766 42.0001 32.0182 40.3582 32.0182 38.3405C32.0182 35.6838 31.3963 33.0937 30.227 30.7622C29.2484 33.4132 27.1624 35.5319 24.5332 36.555Z" fill="white"/>
<path d="M34.1083 17.2138C35.5656 15.7568 35.5656 13.3859 34.1083 11.9286C33.4027 11.2227 32.4638 10.834 31.4657 10.834C30.4675 10.834 29.529 11.2227 28.8234 11.9286C26.2698 14.4818 23.773 15.6709 20.9647 15.6709C18.1568 15.6709 15.6596 14.4818 13.1064 11.9286C11.6494 10.4716 9.2785 10.4716 7.82116 11.9286C7.11525 12.6345 6.72656 13.5731 6.72656 14.5712C6.72656 15.5694 7.11525 16.5079 7.82116 17.2138C9.27465 18.6673 11.6023 20.4893 13.5778 21.4926V24.3803H28.352V21.4926C30.3272 20.4893 32.6548 18.6676 34.1083 17.2138Z" fill="white"/>
<path d="M13.5776 26.8623V27.3535C13.5776 31.4269 16.8916 34.7408 20.9649 34.7408C25.0383 34.7408 28.3522 31.4269 28.3522 27.3535V26.8623H13.5776Z" fill="white"/>
<path d="M20.9646 13.7543C23.4976 13.7543 25.7137 12.3768 26.907 10.3324C27.5001 9.3163 27.8417 8.13614 27.8417 6.87715C27.8417 3.08514 24.7566 0 20.9646 0C17.1725 0 14.0874 3.08514 14.0874 6.87715C14.0874 8.13614 14.429 9.31598 15.0221 10.3321C16.2154 12.3764 18.4315 13.7543 20.9646 13.7543Z" fill="white"/>
</g>
<defs>
<clipPath id="clip0_631_116">
<rect width="42" height="42" fill="white"/>
</clipPath>
</defs>
</svg>
