<svg width="42" height="42" viewBox="0 0 42 42" fill="none" xmlns="http://www.w3.org/2000/svg">
<g clip-path="url(#clip0_631_271)">
<path d="M38.4725 19.0433C37.5064 19.0433 36.7226 18.2596 36.7226 17.2934C36.7226 12.3847 34.8115 7.77173 31.3412 4.2995C30.6571 3.61538 30.6571 2.50956 31.3412 1.82511C32.0253 1.14098 33.1315 1.14098 33.8156 1.82511C37.9476 5.95679 40.2224 11.4503 40.2224 17.2934C40.2224 18.2596 39.4386 19.0433 38.4725 19.0433Z" fill="white"/>
<path d="M3.47255 19.0433C2.50676 19.0433 1.72266 18.2596 1.72266 17.2934C1.72266 11.4503 3.99774 5.95679 8.12943 1.82511C8.81355 1.14098 9.91969 1.14098 10.6038 1.82511C11.2883 2.50956 11.2883 3.61538 10.6038 4.2995C7.13351 7.76981 5.22276 12.3847 5.22276 17.2934C5.22276 18.2596 4.43866 19.0433 3.47255 19.0433Z" fill="white"/>
<path d="M37.3862 29.5979C34.74 27.3613 33.2228 24.0922 33.2228 20.6289V15.75C33.2228 9.59189 28.6482 4.49409 22.7228 3.64014V1.74989C22.7228 0.782181 21.9387 0 20.9729 0C20.0068 0 19.2227 0.782181 19.2227 1.74989V3.64014C13.2956 4.49409 8.72266 9.59189 8.72266 15.75V20.6289C8.72266 24.0922 7.2054 27.3613 4.54387 29.6117C3.86295 30.1945 3.47266 31.0415 3.47266 31.9374C3.47266 33.6264 4.84636 35.0001 6.53537 35.0001H35.4104C37.0991 35.0001 38.4728 33.6264 38.4728 31.9374C38.4728 31.0415 38.0825 30.1945 37.3862 29.5979Z" fill="white"/>
<path d="M20.973 42C24.1421 42 26.7934 39.7406 27.4025 36.75H14.5435C15.1523 39.7406 17.8036 42 20.973 42Z" fill="white"/>
</g>
<defs>
<clipPath id="clip0_631_271">
<rect width="42" height="42" fill="white"/>
</clipPath>
</defs>
</svg>
