<svg width="42" height="42" viewBox="0 0 42 42" fill="none" xmlns="http://www.w3.org/2000/svg">
<g clip-path="url(#clip0_631_228)">
<path d="M37.8 4.2H35.7V2.1C35.7 0.84 34.86 0 33.6 0C32.34 0 31.5 0.84 31.5 2.1V4.2H10.5V2.1C10.5 0.84 9.66 0 8.4 0C7.14 0 6.3 0.84 6.3 2.1V4.2H2.1C1.05 4.2 0 5.04 0 6.3V35.7C0 36.96 1.05 37.8 2.1 37.8H14.91C13.44 35.28 12.6 32.34 12.6 29.4C12.6 20.16 20.16 12.6 29.4 12.6C33.39 12.6 36.96 14.07 39.9 16.38V6.3C39.9 5.25 38.85 4.2 37.8 4.2Z" fill="white"/>
<path d="M29.3998 16.7998C22.4698 16.7998 16.7998 22.4698 16.7998 29.3998C16.7998 36.3298 22.4698 41.9998 29.3998 41.9998C36.3298 41.9998 41.9998 36.3298 41.9998 29.3998C41.9998 22.4698 36.3298 16.7998 29.3998 16.7998ZM33.5998 31.4998H29.3998C28.1398 31.4998 27.2998 30.6598 27.2998 29.3998V23.0998C27.2998 21.8398 28.1398 20.9998 29.3998 20.9998C30.6598 20.9998 31.4998 21.8398 31.4998 23.0998V27.2998H33.5998C34.8598 27.2998 35.6998 28.1398 35.6998 29.3998C35.6998 30.6598 34.8598 31.4998 33.5998 31.4998Z" fill="white"/>
</g>
<defs>
<clipPath id="clip0_631_228">
<rect width="42" height="42" fill="white"/>
</clipPath>
</defs>
</svg>
