<svg width="42" height="48" viewBox="0 0 42 48" fill="none" xmlns="http://www.w3.org/2000/svg">
<path fill-rule="evenodd" clip-rule="evenodd" d="M6 0C2.68629 0 0 2.68629 0 6V48L10.5 42L21 48L31.5 42L42 48V6C42 2.68629 39.3138 0 36 0H6ZM20.1213 11.1213C21.2928 9.94974 21.2928 8.05026 20.1213 6.87867C18.9497 5.70711 17.0503 5.70711 15.8787 6.87867L6.87867 15.8787C5.70711 17.0503 5.70711 18.9497 6.87867 20.1213L15.8787 29.1213C17.0503 30.2928 18.9497 30.2928 20.1213 29.1213C21.2928 27.9498 21.2928 26.0502 20.1213 24.8787L16.2426 21H21C25.9707 21 30 25.0293 30 30V33C30 34.6569 31.3431 36 33 36C34.6569 36 36 34.6569 36 33V30C36 21.7157 29.2842 15 21 15H16.2426L20.1213 11.1213Z" fill="white"/>
</svg>
