<svg width="28" height="28" viewBox="0 0 28 28" fill="none" xmlns="http://www.w3.org/2000/svg">
<path d="M2.65427 27.8246C1.96778 27.8646 1.29266 27.6363 0.771244 27.1881C-0.257081 26.1537 -0.257081 24.483 0.771244 23.4485L23.2882 0.931488C24.3578 -0.0693257 26.0361 -0.0136911 27.0369 1.05586C27.9419 2.02305 27.9946 3.50964 27.1604 4.53849L4.51074 27.1881C3.99605 27.6299 3.33175 27.8577 2.65427 27.8246Z" fill="#DADADA"/>
<path d="M25.1449 27.8247C24.4491 27.8217 23.7823 27.5456 23.2883 27.0556L0.771274 4.53846C-0.181416 3.42594 -0.0518928 1.75166 1.06063 0.79888C2.05358 -0.0514496 3.51799 -0.0514496 4.51086 0.79888L27.1605 23.3159C28.2298 24.317 28.2851 25.9954 27.284 27.0647C27.2442 27.1072 27.203 27.1484 27.1605 27.1882C26.6059 27.6705 25.876 27.901 25.1449 27.8247Z" fill="#DADADA"/>
</svg>
