<svg width="90" height="90" viewBox="0 0 90 90" fill="none" xmlns="http://www.w3.org/2000/svg">
<path d="M29.1064 14.2383H43.8721C46.7846 14.2383 49.1455 11.8774 49.1455 8.96484V5.27344C49.1455 2.36092 46.7846 0 43.8721 0H29.1064C26.1939 0 23.833 2.36092 23.833 5.27344V8.96484C23.833 11.8774 26.1939 14.2383 29.1064 14.2383Z" fill="white"/>
<path d="M60.7471 7.20703H54.4189V8.96484C54.4189 14.7797 49.6869 19.5117 43.8721 19.5117H29.1064C23.2916 19.5117 18.5596 14.7797 18.5596 8.96484V7.20703H12.2314C7.87031 7.20703 4.32129 10.7561 4.32129 15.1172V77.6953C4.32129 82.0564 7.87031 85.6055 12.2314 85.6055H56.4949L56.4984 74.2746C55.7355 73.8738 54.9973 73.4291 54.2854 72.9492H12.583C11.1275 72.9492 9.94629 71.768 9.94629 70.3125C9.94629 68.857 11.1275 67.6758 12.583 67.6758H48.6902C47.3121 65.8705 46.1906 63.8596 45.3768 61.6992H12.583C11.1275 61.6992 9.94629 60.518 9.94629 59.0625C9.94629 57.607 11.1275 56.4258 12.583 56.4258H44.0654C43.8105 54.4342 43.8053 52.4514 44.0584 50.4492H12.583C11.1275 50.4492 9.94629 49.268 9.94629 47.8125C9.94629 46.357 11.1275 45.1758 12.583 45.1758H45.3645C48.8924 35.7768 58.1525 29.3766 68.6572 29.9145V15.1172C68.6572 10.7561 65.1082 7.20703 60.7471 7.20703ZM22.4268 34.9805H20.8447V36.5625C20.8447 38.018 19.6635 39.1992 18.208 39.1992C16.7525 39.1992 15.5713 38.018 15.5713 36.5625V34.9805H13.9893C12.5338 34.9805 11.3525 33.7992 11.3525 32.3438C11.3525 30.8883 12.5338 29.707 13.9893 29.707H15.5713V28.125C15.5713 26.6695 16.7525 25.4883 18.208 25.4883C19.6635 25.4883 20.8447 26.6695 20.8447 28.125V29.707H22.4268C23.8822 29.707 25.0635 30.8883 25.0635 32.3438C25.0635 33.7992 23.8822 34.9805 22.4268 34.9805ZM46.333 34.9805H33.6768C32.2213 34.9805 31.04 33.7992 31.04 32.3438C31.04 30.8883 32.2213 29.707 33.6768 29.707H46.333C47.7885 29.707 48.9697 30.8883 48.9697 32.3438C48.9697 33.7992 47.7885 34.9805 46.333 34.9805Z" fill="white"/>
<path d="M61.772 76.2783V84.3748C61.772 87.4809 64.2909 89.9998 67.397 89.9998C70.5048 89.9998 73.022 87.4809 73.022 84.3748V76.2871C69.4369 77.1667 65.5458 77.2108 61.772 76.2783Z" fill="white"/>
<path d="M67.4122 71.6896C77.5006 71.6896 85.6788 63.5113 85.6788 53.4229C85.6788 43.3345 77.5006 35.1562 67.4122 35.1562C57.3238 35.1562 49.1455 43.3345 49.1455 53.4229C49.1455 63.5113 57.3238 71.6896 67.4122 71.6896Z" fill="white"/>
</svg>
