<svg width="90" height="90" viewBox="0 0 90 90" fill="none" xmlns="http://www.w3.org/2000/svg">
<g clip-path="url(#clip0_631_13)">
<path d="M28.1873 21.369L31.8388 17.7177C32.6414 16.9154 33.8675 16.7163 34.8823 17.2237C41.2178 20.3913 48.7822 20.3913 55.1173 17.2237C55.4835 17.0406 55.8872 16.9453 56.2965 16.9453C57.3886 16.9453 57.9551 17.5117 58.5029 18.0594L61.8128 21.3692C62.6024 22.1588 63.6524 22.5937 64.7691 22.5937H67.4062V17.1522C67.4062 14.51 66.5331 11.8907 64.9477 9.77678C64.9438 9.77168 64.94 9.76641 64.9361 9.76131C62.9262 7.08557 56.6651 0.000703125 45.0001 0C33.335 0.000703125 27.0739 7.08557 25.0638 9.76131C25.06 9.76641 25.0561 9.77168 25.0522 9.77678C23.4669 11.8907 22.5938 14.51 22.5938 17.1522V22.5937H25.2308C26.3476 22.5937 27.3975 22.159 28.1873 21.369Z" fill="white"/>
<path d="M67.4041 27.8672H64.7691C62.244 27.8672 59.8698 26.8839 58.084 25.0983L55.7259 22.7402C48.8885 25.5798 41.1113 25.5798 34.2739 22.7402C33.5764 23.4377 32.6994 24.3145 31.916 25.0982C30.13 26.8839 27.7558 27.8672 25.2307 27.8672H22.5957C22.6862 40.1644 32.6815 50.1055 44.9999 50.1055C57.3183 50.1055 67.3136 40.1644 67.4041 27.8672Z" fill="white"/>
<path d="M16.9453 81.7143C16.9453 78.0677 19.3145 74.9661 22.5937 73.862V56.6904L18.3391 57.636C12.6259 58.9058 7.92723 63.1434 6.07643 68.6954L0.132209 86.5284C-0.396365 88.114 0.704904 89.9996 2.63393 89.9996H25.2304C20.6621 89.9996 16.9453 86.2827 16.9453 81.7143Z" fill="white"/>
<path d="M22.2188 81.7148C22.2188 83.3754 23.5698 84.7266 25.2304 84.7266C26.891 84.7266 28.2421 83.3754 28.2421 81.7148C28.2421 80.0542 26.891 78.7031 25.2304 78.7031C23.5698 78.7031 22.2188 80.0542 22.2188 81.7148Z" fill="white"/>
<path d="M64.7695 73.0547C61.5425 73.0547 58.9336 75.6666 58.9336 78.8906V84.7266H59.1212C60.5773 84.7266 61.7579 85.9071 61.7579 87.3633C61.7579 88.8195 60.5773 90 59.1212 90H70.4181C68.9619 90 67.7814 88.8195 67.7814 87.3633C67.7814 85.9071 68.9619 84.7266 70.4181 84.7266H70.6055V78.8906C70.6055 75.6726 67.9874 73.0547 64.7695 73.0547Z" fill="white"/>
<path d="M62.1329 68.0959V55.5191L58.1448 54.6328L47.261 72.7724C46.7844 73.5666 45.9262 74.0524 45.0001 74.0524C44.0739 74.0524 43.2157 73.5664 42.7392 72.7724L31.8521 54.6335L27.8672 55.5191V73.8626C31.1464 74.9667 33.5156 78.0683 33.5156 81.7149C33.5156 86.2833 29.7988 90.0002 25.2305 90.0002H56.2968C54.8406 90.0002 53.6601 88.8196 53.6601 87.3635V78.8908C53.6603 71.7028 59.5106 68.7314 62.1329 68.0959Z" fill="white"/>
<path d="M89.8679 86.5284L83.9235 68.6954C82.0729 63.1434 77.3741 58.9058 71.6609 57.636L67.4062 56.6904V68.0995C72.2629 69.2866 75.8789 73.673 75.8789 78.8902V87.3629C75.8789 88.819 74.6984 89.9996 73.2422 89.9996H87.366C89.2952 89.9996 90.3965 88.114 89.8679 86.5284Z" fill="white"/>
<path d="M37.8975 54.4531L44.9999 66.2906L52.1023 54.4531C49.8348 55.0555 47.4545 55.3784 44.9999 55.3784C42.5453 55.3784 40.165 55.0557 37.8975 54.4531Z" fill="white"/>
</g>
<defs>
<clipPath id="clip0_631_13">
<rect width="90" height="90" fill="white"/>
</clipPath>
</defs>
</svg>
