<svg width="42" height="42" viewBox="0 0 42 42" fill="none" xmlns="http://www.w3.org/2000/svg">
<path fill-rule="evenodd" clip-rule="evenodd" d="M32.1169 0.879369C31.5545 0.321424 30.796 0.00578526 30.0038 0H3.00587C2.20995 0.00652941 1.44765 0.321801 0.879634 0.879369C0.317307 1.44423 0.0011952 2.20856 0.000264898 3.00561V38.9941C-0.00502981 39.3903 0.0690962 39.7835 0.218267 40.1506C0.367438 40.5176 0.588631 40.8511 0.868789 41.1312C1.14895 41.4114 1.48239 41.6326 1.84944 41.7817C2.21649 41.9309 2.6097 42.005 3.00587 41.9997H21.8139C21.2822 41.0872 21.0014 40.0502 21.0001 38.9941V22.4961C21.0036 20.9064 21.6367 19.3828 22.7608 18.2586C23.8849 17.1345 25.4085 16.5015 26.9982 16.498H32.9963V3.00561C32.994 2.20885 32.6781 1.44503 32.1169 0.879369ZM4.48899 5.99809H13.4927V9.00369H4.48899V5.99809ZM11.9833 31.4998H4.48899V28.4942H11.9833V31.4998ZM17.9814 31.4998H14.9889V28.4942H17.9814V31.4998ZM17.9814 24.0055H4.48899V20.9999H17.9814V24.0055ZM17.9814 16.5111H4.48899V13.5055H17.9814V16.5111Z" fill="white"/>
<path fill-rule="evenodd" clip-rule="evenodd" d="M38.9945 19.5034H26.9983C26.2012 19.5034 25.4367 19.8201 24.873 20.3837C24.3094 20.9474 23.9927 21.7119 23.9927 22.509V38.9939C23.991 39.3891 24.0675 39.7807 24.218 40.1462C24.3684 40.5116 24.5897 40.8436 24.8692 41.1231C25.1486 41.4025 25.4806 41.6238 25.8461 41.7743C26.2115 41.9247 26.6031 42.0013 26.9983 41.9995H38.9945C39.7916 41.9995 40.5561 41.6829 41.1198 41.1192C41.6834 40.5555 42.0001 39.7911 42.0001 38.9939V22.4959C41.9966 21.701 41.6784 20.9399 41.1151 20.3791C40.5519 19.8183 39.7893 19.5034 38.9945 19.5034ZM31.5002 37.5108H28.4945V34.5052H31.5002V37.5108ZM31.5002 33.009H28.4945V30.0034H31.5002V33.009ZM37.4982 37.5108H34.4926V34.5052H37.4982V37.5108ZM37.4982 33.009H34.4926V30.0034H37.4982V33.009ZM37.4982 27.0109H28.4945V24.0053H37.4982V27.0109Z" fill="white"/>
</svg>
