<svg width="42" height="42" viewBox="0 0 42 42" fill="none" xmlns="http://www.w3.org/2000/svg">
<g clip-path="url(#clip0_631_106)">
<path d="M11.1562 19.8516C5.04993 19.8516 0.0820312 24.8195 0.0820312 30.9258C0.0820312 37.0321 5.04993 42 11.1562 42C17.2626 42 22.2305 37.0321 22.2305 30.9258C22.2305 24.8195 17.2626 19.8516 11.1562 19.8516ZM16.0458 29.581L10.3036 35.3231C10.0634 35.5634 9.74851 35.6836 9.43359 35.6836C9.11868 35.6836 8.80376 35.5634 8.56357 35.3231L6.10263 32.8622C5.62209 32.3818 5.62209 31.6026 6.10263 31.1221C6.58309 30.6416 7.36222 30.6416 7.84276 31.1221L9.43359 32.713L14.3058 27.8408C14.7862 27.3604 15.5653 27.3604 16.0459 27.8408C16.5263 28.3214 16.5263 29.1005 16.0458 29.581Z" fill="white"/>
<path d="M32.4844 10.6641C31.8048 10.6641 31.2539 10.1131 31.2539 9.43359V0H13.6172C11.5817 0 9.92578 1.65596 9.92578 3.69141V17.4471C10.3312 17.4104 10.7414 17.3906 11.1562 17.3906C15.3503 17.3906 19.1048 19.3082 21.5895 22.3125H34.9453C35.6249 22.3125 36.1758 22.8634 36.1758 23.543C36.1758 24.2225 35.6249 24.7734 34.9453 24.7734H23.2106C23.9797 26.2743 24.4757 27.937 24.6349 29.6953H34.9453C35.6249 29.6953 36.1758 30.2462 36.1758 30.9258C36.1758 31.6053 35.6249 32.1562 34.9453 32.1562H24.6349C24.2669 36.22 22.0957 39.7709 18.9294 42H38.2266C40.262 42 41.918 40.344 41.918 38.3086V10.6641H32.4844ZM34.9453 17.3906H16.8984C16.2189 17.3906 15.668 16.8397 15.668 16.1602C15.668 15.4806 16.2189 14.9297 16.8984 14.9297H34.9453C35.6249 14.9297 36.1758 15.4806 36.1758 16.1602C36.1758 16.8397 35.6249 17.3906 34.9453 17.3906Z" fill="white"/>
<path d="M33.7148 0.720703V8.20335H41.197L33.7148 0.720703Z" fill="white"/>
</g>
<defs>
<clipPath id="clip0_631_106">
<rect width="42" height="42" fill="white"/>
</clipPath>
</defs>
</svg>
