<svg width="50" height="48" viewBox="0 0 50 48" fill="none" xmlns="http://www.w3.org/2000/svg">
<path d="M18.6 24V48H6C4.0146 48 2.4 46.3854 2.4 44.4V23.8788C2.7876 23.958 3.189 24 3.6 24H18.6ZM21 24V48H28.2V24H21ZM45.6 24H30.6V48H43.2C45.1854 48 46.8 46.3854 46.8 44.4V23.8788C46.4124 23.958 46.011 24 45.6 24ZM49.2 13.2V18C49.2 19.9854 47.5854 21.6 45.6 21.6H3.6C1.6146 21.6 0 19.9854 0 18V13.2C0 11.2146 1.6146 9.6 3.6 9.6H15.0114C14.2548 8.5956 13.8 7.3512 13.8 6C13.8 2.6916 16.4916 0 19.8 0C21.7638 0 23.505 0.9528 24.6 2.4156C25.6956 0.9528 27.4362 0 29.4 0C32.7084 0 35.4 2.6916 35.4 6C35.4 7.3512 34.9452 8.5956 34.1886 9.6H45.6C47.5854 9.6 49.2 11.2146 49.2 13.2ZM25.8 6V9.6H29.4C31.3854 9.6 33 7.9854 33 6C33 4.0146 31.3854 2.4 29.4 2.4C27.4146 2.4 25.8 4.0146 25.8 6ZM19.8 9.6H23.4V6C23.4 4.0146 21.7854 2.4 19.8 2.4C17.8146 2.4 16.2 4.0146 16.2 6C16.2 7.9854 17.8146 9.6 19.8 9.6Z" fill="white"/>
</svg>
