<svg width="16" height="20" viewBox="0 0 16 20" fill="none" xmlns="http://www.w3.org/2000/svg">
<path d="M14.7846 4.21745C14.2018 3.0674 13.3395 2.08244 12.2769 1.35311C11.2143 0.623789 9.9855 0.173511 8.70357 0.043674C8.12366 -0.014558 7.53939 -0.014558 6.95948 0.043674C5.67758 0.173596 4.44885 0.623862 3.38621 1.3531C2.32357 2.08234 1.4611 3.06715 0.878031 4.21707C0.144447 5.68429 -0.138906 7.33596 0.0636604 8.96404C0.266227 10.5921 0.945654 12.1238 2.01637 13.3662L7.23757 19.7192C7.30967 19.807 7.40032 19.8777 7.50298 19.9263C7.60565 19.9748 7.71779 20 7.83133 20C7.94488 20 8.05702 19.9748 8.15969 19.9263C8.26235 19.8777 8.35299 19.807 8.4251 19.7192L13.6463 13.3662C14.717 12.1239 15.3964 10.5923 15.599 8.96424C15.8016 7.33622 15.5182 5.68461 14.7846 4.21745ZM7.83133 10.7688C7.22325 10.7688 6.62883 10.5884 6.12323 10.2503C5.61763 9.91215 5.22356 9.43159 4.99086 8.86935C4.75816 8.3071 4.69727 7.68842 4.8159 7.09154C4.93453 6.49467 5.22735 5.9464 5.65733 5.51607C6.08731 5.08575 6.63513 4.7927 7.23153 4.67397C7.82792 4.55524 8.4461 4.61618 9.0079 4.84907C9.56969 5.08196 10.0499 5.47634 10.3877 5.98235C10.7255 6.48836 10.9058 7.08326 10.9058 7.69183C10.9049 8.50761 10.5807 9.28969 10.0043 9.86653C9.42791 10.4434 8.64645 10.7679 7.83133 10.7688Z" fill="#086DB6"/>
</svg>
