<svg width="54" height="54" viewBox="0 0 54 54" fill="none" xmlns="http://www.w3.org/2000/svg">
<path d="M27 54C41.9117 54 54 41.9117 54 27C54 12.0883 41.9117 0 27 0C12.0883 0 0 12.0883 0 27C0 41.9117 12.0883 54 27 54Z" fill="url(#paint0_linear_633_70)"/>
<path d="M32.7347 12H21.2747C16.1627 12 12.0107 16.152 12.0107 21.264V32.724C12.0107 37.836 16.1627 41.988 21.2747 41.988H32.7347C37.8467 41.988 41.9987 37.836 41.9987 32.724V21.264C41.9987 16.152 37.8467 12 32.7347 12ZM38.6507 32.736C38.6507 36 35.9987 38.664 32.7227 38.664H21.2627C17.9987 38.664 15.3347 36.012 15.3347 32.736V21.276C15.3347 18.012 17.9867 15.348 21.2627 15.348H32.7227C35.9867 15.348 38.6507 18 38.6507 21.276V32.736Z" fill="white"/>
<path d="M26.9991 19.332C22.7751 19.332 19.3311 22.776 19.3311 27C19.3311 31.224 22.7751 34.668 26.9991 34.668C31.2231 34.668 34.6671 31.224 34.6671 27C34.6671 22.776 31.2231 19.332 26.9991 19.332ZM26.9991 31.656C24.4311 31.656 22.3431 29.568 22.3431 27C22.3431 24.432 24.4311 22.344 26.9991 22.344C29.5671 22.344 31.6551 24.432 31.6551 27C31.6551 29.568 29.5671 31.656 26.9991 31.656Z" fill="white"/>
<path d="M35.2495 20.1727C35.956 20.0582 36.4358 19.3927 36.3213 18.6862C36.2068 17.9798 35.5413 17.4999 34.8348 17.6144C34.1284 17.7289 33.6485 18.3945 33.763 19.1009C33.8775 19.8074 34.5431 20.2872 35.2495 20.1727Z" fill="white"/>
<defs>
<linearGradient id="paint0_linear_633_70" x1="6.44148" y1="47.5585" x2="44.8115" y2="9.18852" gradientUnits="userSpaceOnUse">
<stop stop-color="#FEE411"/>
<stop offset="0.0518459" stop-color="#FEDB16"/>
<stop offset="0.1381" stop-color="#FEC125"/>
<stop offset="0.2481" stop-color="#FE983D"/>
<stop offset="0.3762" stop-color="#FE5F5E"/>
<stop offset="0.5" stop-color="#FE2181"/>
<stop offset="1" stop-color="#9000DC"/>
</linearGradient>
</defs>
</svg>
