<svg width="54" height="54" viewBox="0 0 54 54" fill="none" xmlns="http://www.w3.org/2000/svg">
<path d="M27 54C41.9117 54 54 41.9117 54 27C54 12.0883 41.9117 0 27 0C12.0883 0 0 12.0883 0 27C0 41.9117 12.0883 54 27 54Z" fill="#4169E1"/>
<path d="M42.5611 37.5667C41.7757 37.6772 37.9343 37.5667 37.7349 37.5667C36.7419 37.5794 35.7839 37.2002 35.0686 36.5113C34.2586 35.732 33.5345 34.8729 32.7429 34.0567C32.5088 33.809 32.2554 33.5802 31.9851 33.3725C31.3531 32.8847 30.7271 32.9952 30.4295 33.7407C30.197 34.5464 30.0348 35.3708 29.9448 36.2045C29.8926 36.9592 29.414 37.4317 28.5671 37.4839C28.0425 37.5115 27.5178 37.5207 26.9993 37.5085C25.1096 37.4964 23.2496 37.0369 21.5717 36.1677C19.7561 35.156 18.1744 33.7728 16.9295 32.1085C14.883 29.4944 13.2477 26.6225 11.7873 23.6617C11.7105 23.5145 10.2133 20.3297 10.1765 20.1794C10.0415 19.6762 10.1765 19.1945 10.5907 19.0288C10.8545 18.9275 15.7882 19.0288 15.871 19.0288C16.2378 19.0256 16.5961 19.1393 16.8939 19.3533C17.1918 19.5673 17.4138 19.8706 17.5278 20.2192C18.4399 22.5545 19.6885 24.7438 21.2342 26.7177C21.4505 26.9816 21.7037 27.2131 21.9859 27.4049C22.3878 27.678 22.7683 27.5829 22.934 27.1196C23.1303 26.4768 23.2457 25.812 23.2776 25.1406C23.3052 23.809 23.2776 22.9315 23.204 21.603C23.1549 20.75 22.8542 20.0014 21.5962 19.7621C21.2096 19.6946 21.1759 19.3755 21.4244 19.0564C21.9429 18.3937 22.6517 18.2894 23.4463 18.2495C24.6307 18.182 25.815 18.228 26.9993 18.2495H27.257C27.7725 18.2476 28.2867 18.3 28.7911 18.406C29.0893 18.4663 29.3601 18.6213 29.563 18.848C29.7659 19.0747 29.8901 19.3609 29.9171 19.6639C29.9777 19.9999 30.0034 20.3413 29.9938 20.6825C29.9632 22.1369 29.8926 23.5881 29.8773 25.0424C29.8631 25.6183 29.9156 26.1938 30.0337 26.7575C30.2025 27.5307 30.7333 27.724 31.261 27.1656C31.9443 26.4437 32.5711 25.6703 33.1357 24.8522C34.134 23.3612 34.9576 21.7603 35.5902 20.0812C35.9338 19.219 36.2038 19.0288 37.1243 19.0288H42.3586C42.6699 19.0233 42.9801 19.0647 43.2791 19.1515C43.3849 19.1793 43.4838 19.2287 43.5697 19.2965C43.6555 19.3643 43.7264 19.4491 43.778 19.5456C43.8295 19.6421 43.8606 19.7482 43.8693 19.8572C43.8779 19.9663 43.864 20.0759 43.8283 20.1794C43.5706 21.3269 42.9508 22.3056 42.2942 23.2475C41.2295 24.7571 40.1066 26.2267 39.0174 27.7117C38.8796 27.9087 38.7536 28.1136 38.64 28.3254C38.2288 29.0648 38.2595 29.479 38.8548 30.0957C39.8059 31.0714 40.8215 31.9888 41.7388 32.9952C42.4124 33.7268 43.0202 34.5163 43.5552 35.3546C44.2271 36.3947 43.8129 37.3888 42.5611 37.5667Z" fill="white"/>
</svg>
