<svg width="48" height="48" viewBox="0 0 48 48" fill="none" xmlns="http://www.w3.org/2000/svg">
<path d="M24 48C37.2548 48 48 37.2548 48 24C48 10.7452 37.2548 0 24 0C10.7452 0 0 10.7452 0 24C0 37.2548 10.7452 48 24 48Z" fill="#3EBC2F"/>
<path d="M34.5816 13.4183C32.0846 10.8964 28.7686 9.34976 25.2317 9.05743C21.6948 8.7651 18.1699 9.7463 15.2927 11.824C12.4155 13.9018 10.3756 16.9393 9.54071 20.3886C8.70586 23.838 9.13112 27.4721 10.7398 30.6356L9.16068 38.3019C9.14429 38.3782 9.14383 38.4571 9.15931 38.5336C9.1748 38.6101 9.2059 38.6825 9.25068 38.7465C9.31627 38.8435 9.40989 38.9182 9.51905 38.9606C9.62821 39.003 9.74771 39.011 9.86158 38.9837L17.3752 37.2028C20.5298 38.7708 24.1383 39.1687 27.5586 38.3258C30.979 37.4828 33.9894 35.4538 36.0542 32.5996C38.119 29.7455 39.1042 26.2514 38.8345 22.739C38.5649 19.2266 37.0578 15.9238 34.5816 13.4183ZM32.2389 32.1165C30.5112 33.8393 28.2865 34.9765 25.8782 35.368C23.47 35.7594 20.9996 35.3852 18.8152 34.2983L17.7679 33.7801L13.1616 34.871L13.1752 34.8137L14.1298 30.1774L13.617 29.1656C12.5009 26.9736 12.1072 24.4846 12.4923 22.0551C12.8773 19.6257 14.0214 17.3804 15.7607 15.641C17.9461 13.4563 20.9097 12.229 23.9998 12.229C27.0899 12.229 30.0535 13.4563 32.2389 15.641C32.2575 15.6624 32.2775 15.6824 32.2989 15.701C34.4571 17.8913 35.662 20.8461 35.6508 23.9211C35.6395 26.9961 34.4131 29.942 32.2389 32.1165Z" fill="white"/>
<path d="M31.8298 28.7154C31.2653 29.6045 30.3735 30.6927 29.2525 30.9627C27.2889 31.4372 24.2753 30.979 20.5253 27.4827L20.4789 27.4418C17.1816 24.3845 16.3253 21.84 16.5325 19.8218C16.6471 18.6763 17.6016 17.64 18.4062 16.9636C18.5334 16.855 18.6842 16.7777 18.8466 16.7379C19.009 16.6981 19.1785 16.6968 19.3415 16.7341C19.5045 16.7715 19.6565 16.8465 19.7853 16.9531C19.9142 17.0597 20.0163 17.195 20.0835 17.3481L21.2971 20.0754C21.376 20.2522 21.4052 20.4472 21.3816 20.6394C21.3581 20.8316 21.2827 21.0137 21.1635 21.1663L20.5498 21.9627C20.4181 22.1271 20.3387 22.3272 20.3217 22.5372C20.3047 22.7471 20.3509 22.9574 20.4544 23.1409C20.798 23.7436 21.6216 24.63 22.5353 25.4509C23.5607 26.3781 24.698 27.2263 25.418 27.5154C25.6107 27.5941 25.8225 27.6133 26.0261 27.5705C26.2298 27.5278 26.416 27.425 26.5607 27.2754L27.2725 26.5581C27.4099 26.4227 27.5807 26.3261 27.7675 26.2782C27.9544 26.2303 28.1506 26.2328 28.3362 26.2854L31.2189 27.1036C31.3779 27.1524 31.5237 27.2369 31.645 27.3506C31.7664 27.4644 31.8601 27.6044 31.9191 27.7599C31.978 27.9154 32.0006 28.0824 31.9852 28.248C31.9697 28.4136 31.9166 28.5735 31.8298 28.7154Z" fill="white"/>
</svg>
