<svg width="24" height="24" viewBox="0 0 24 24" fill="none" xmlns="http://www.w3.org/2000/svg">
<path d="M20.52 3.449C18.24 1.245 15.24 0 12.045 0C2.875 0 -2.883 9.935 1.696 17.838L0 24L6.335 22.348C9.095 23.839 11.356 23.707 12.051 23.795C22.684 23.795 27.977 10.931 20.505 3.488L20.52 3.449Z" fill="#ECEFF1"/>
<path d="M12.0669 21.7512L12.0609 21.7502H12.0449C8.86288 21.7502 6.82988 20.2432 6.62988 20.1562L2.87988 21.1312L3.88488 17.4862L3.64588 17.1112C2.65588 15.5352 2.12988 13.7202 2.12988 11.8512C2.12988 3.05821 12.8749 -1.33879 19.0929 4.87621C25.2959 11.0262 20.9409 21.7512 12.0669 21.7512Z" fill="#4CAF50"/>
<path d="M17.5071 14.3072L17.4981 14.3822C17.1971 14.2322 15.7311 13.5152 15.4581 13.4162C14.8451 13.1892 15.0181 13.3802 13.8411 14.7282C13.6661 14.9232 13.4921 14.9382 13.1951 14.8032C12.8951 14.6532 11.9321 14.3382 10.7921 13.3182C9.90414 12.5232 9.30814 11.5482 9.13214 11.2482C8.83914 10.7422 9.45214 10.6702 10.0101 9.61417C10.1101 9.40417 10.0591 9.23917 9.98514 9.09017C9.91014 8.94017 9.31314 7.47017 9.06314 6.88417C8.82314 6.30017 8.57614 6.37417 8.39114 6.37417C7.81514 6.32417 7.39414 6.33217 7.02314 6.71817C5.40914 8.49217 5.81614 10.3222 7.19714 12.2682C9.91114 15.8202 11.3571 16.4742 14.0011 17.3822C14.7151 17.6092 15.3661 17.5772 15.8811 17.5032C16.4551 17.4122 17.6481 16.7822 17.8971 16.0772C18.1521 15.3722 18.1521 14.7872 18.0771 14.6522C18.0031 14.5172 17.8071 14.4422 17.5071 14.3072V14.3072Z" fill="#FAFAFA"/>
</svg>
