<svg width="48" height="48" viewBox="0 0 48 48" fill="none" xmlns="http://www.w3.org/2000/svg">
<path d="M24 48C37.2548 48 48 37.2548 48 24C48 10.7452 37.2548 0 24 0C10.7452 0 0 10.7452 0 24C0 37.2548 10.7452 48 24 48Z" fill="#35A0EF"/>
<path d="M37.0744 12.4091L36.578 12.5891L9.63799 22.2955C9.44708 22.3545 9.28115 22.4752 9.16622 22.6387C9.05128 22.8021 8.99383 22.9991 9.00288 23.1988C9.01192 23.3984 9.08695 23.5894 9.2162 23.7418C9.34545 23.8942 9.52162 23.9994 9.71708 24.0409L16.6907 25.95L17.9916 29.7682L19.2925 33.5864C19.3673 33.7735 19.4866 33.9396 19.6401 34.0702C19.7935 34.2009 19.9766 34.292 20.1733 34.3358C20.37 34.3796 20.5745 34.3748 20.7689 34.3216C20.9633 34.2685 21.1418 34.1687 21.2889 34.0309L24.8916 30.6273L31.9662 35.4245C32.8307 36.0136 34.0634 35.5773 34.2844 34.6064L38.9698 13.9036C39.1989 12.8782 38.1189 12.0355 37.0744 12.4091ZM33.6353 17.0045L21.4634 26.9536L20.8907 27.4227C20.7649 27.5225 20.6828 27.6672 20.6616 27.8264L20.5334 28.8846L20.1816 31.8573C20.1845 31.8934 20.1729 31.9293 20.1494 31.9569C20.1259 31.9845 20.0923 32.0017 20.0562 32.0045C20.02 32.0074 19.9842 31.9958 19.9566 31.9723C19.9289 31.9488 19.9118 31.9153 19.9089 31.8791L18.9189 28.9091L17.8962 25.8682C17.8529 25.7315 17.8587 25.584 17.9124 25.4511C17.9662 25.3182 18.0646 25.2082 18.1907 25.14L30.8562 17.88L33.2398 16.5164C33.5862 16.3145 33.9407 16.7536 33.6353 17.0045Z" fill="white"/>
</svg>
