<svg width="42" height="42" viewBox="0 0 42 42" fill="none" xmlns="http://www.w3.org/2000/svg">
<path d="M23.6597 14.7662C23.6597 15.7801 22.8345 16.6054 21.8206 16.6054H19.9814V12.9263H21.8206C22.8345 12.9263 23.6597 13.7515 23.6597 14.7662Z" fill="white"/>
<path d="M29.8981 34.6467C32.2934 32.066 34.2063 29.4287 35.5837 26.8062C37.335 23.47 38.2234 20.1469 38.2234 16.928C38.2234 12.4605 36.4425 8.23266 33.2097 5.02195C29.9489 1.78336 25.6128 0 21.0001 0C16.3875 0 12.0513 1.78336 8.79061 5.02195C5.55775 8.23266 3.77686 12.4605 3.77686 16.928C3.77686 20.1469 4.66525 23.47 6.41662 26.8062C7.79393 29.4287 9.70689 32.066 12.1022 34.6467C13.9807 36.6704 15.8478 38.3299 17.3268 39.5391H9.10478C8.42475 39.5391 7.87432 40.0903 7.87432 40.7695C7.87432 41.4487 8.42475 42 9.10478 42H32.8955C33.5755 42 34.126 41.4487 34.126 40.7695C34.126 40.0903 33.5755 39.5391 32.8955 39.5391H24.6735C26.1525 38.3299 28.0196 36.6704 29.8981 34.6467ZM21.0001 29.4607C14.2473 29.4607 8.75287 23.9662 8.75287 17.2134C8.75287 10.4598 14.2473 4.96617 21.0001 4.96617C27.7529 4.96617 33.2474 10.4598 33.2474 17.2134C33.2474 23.9662 27.7529 29.4607 21.0001 29.4607ZM21.0001 7.42711C15.6041 7.42711 11.2138 11.8174 11.2138 17.2134C11.2138 22.6095 15.6041 26.9998 21.0001 26.9998C26.3962 26.9998 30.7865 22.6095 30.7865 17.2134C30.7865 11.8174 26.3962 7.42711 21.0001 7.42711ZM21.8204 19.0665H19.9813V22.6956C19.9813 23.3756 19.4301 23.9261 18.7508 23.9261C18.0708 23.9261 17.5204 23.3756 17.5204 22.6956V11.696C17.5204 11.0168 18.0708 10.4655 18.7508 10.4655H21.8204C24.192 10.4655 26.1205 12.3949 26.1205 14.7664C26.1205 17.1371 24.192 19.0665 21.8204 19.0665Z" fill="white"/>
</svg>
