<svg width="90" height="90" viewBox="0 0 90 90" fill="none" xmlns="http://www.w3.org/2000/svg">
<g clip-path="url(#clip0_631_32)">
<path d="M45 17.5781C49.8541 17.5781 53.7891 13.6431 53.7891 8.78906C53.7891 3.935 49.8541 0 45 0C40.1459 0 36.2109 3.935 36.2109 8.78906C36.2109 13.6431 40.1459 17.5781 45 17.5781Z" fill="white"/>
<path d="M32.6953 45.1762H42.3633C45.2758 45.1762 47.6367 42.8153 47.6367 39.9028C47.6367 36.9903 45.2758 34.6293 42.3633 34.6293H36.2109C34.7548 34.6293 33.5742 33.4488 33.5742 31.9926V28.1254C33.5742 26.6693 34.7548 25.4887 36.2109 25.4887C37.6671 25.4887 38.8477 26.6693 38.8477 28.1254V29.3559H42.3633C47.2686 29.3559 51.4027 32.7223 52.5763 37.2661H53.7891C53.7891 31.588 58.3001 26.9459 63.9262 26.7296C62.8307 22.5871 59.6296 19.3019 55.5374 18.0869C52.9589 21.0061 49.192 22.852 45 22.852C40.8085 22.852 37.042 21.0065 34.4635 18.0881C29.376 19.5978 25.6641 24.3059 25.6641 29.8832V38.145C25.6641 42.0281 28.8121 45.1762 32.6953 45.1762Z" fill="white"/>
<path d="M59.0625 37.2656H69.6094C69.6094 34.3531 67.2485 31.9922 64.3359 31.9922C61.4234 31.9922 59.0625 34.3531 59.0625 37.2656Z" fill="white"/>
<path d="M82.0898 79.4531H7.91016C3.54146 79.4531 0 82.9946 0 87.3633C0 88.8195 1.18055 90 2.63672 90H87.3633C88.8195 90 90 88.8195 90 87.3633C90 82.9946 86.4585 79.4531 82.0898 79.4531Z" fill="white"/>
<path d="M10.5469 74.1797C14.9155 74.1797 18.457 70.6382 18.457 66.2695C18.457 61.9009 14.9155 58.3594 10.5469 58.3594C6.17822 58.3594 2.63672 61.9009 2.63672 66.2695C2.63672 70.6382 6.17822 74.1797 10.5469 74.1797Z" fill="white"/>
<path d="M32.6953 50.4492H37.9688V53.0859H32.6953V50.4492Z" fill="white"/>
<path d="M60.2964 74.1797H82.0897C85.0023 74.1797 87.3632 71.8188 87.3632 68.9062C87.3632 65.9937 85.0023 63.6328 82.0897 63.6328H64.3358C64.3358 67.6812 62.8065 71.3786 60.2964 74.1797Z" fill="white"/>
<path d="M26.3673 74.1797H48.5157C54.3406 74.1797 59.0626 69.4577 59.0626 63.6328V53.0859H74.8829C77.7954 53.0859 80.1563 50.725 80.1563 47.8125C80.1563 44.9 77.7954 42.5391 74.8829 42.5391H52.5764C51.4736 46.8084 47.7563 50.0353 43.2423 50.4097V58.3594H26.3673C24.7387 58.3594 23.2254 58.8521 21.9673 59.6958C23.0865 61.6324 23.7305 63.8764 23.7305 66.2695C23.7305 68.6626 23.0865 70.9066 21.9673 72.8432C23.2254 73.687 24.7387 74.1797 26.3673 74.1797Z" fill="white"/>
</g>
<defs>
<clipPath id="clip0_631_32">
<rect width="90" height="90" fill="white"/>
</clipPath>
</defs>
</svg>
