<svg width="42" height="42" viewBox="0 0 42 42" fill="none" xmlns="http://www.w3.org/2000/svg">
<path d="M27.7436 19.6875C26.4025 19.6875 25.8955 21.3674 25.8751 21.4394C25.7213 21.9658 25.2562 22.3935 24.6842 22.3287C24.1339 22.3251 23.652 21.961 23.5054 21.4311C23.4874 21.3674 22.9804 19.6875 21.6393 19.6875C20.4425 19.6875 19.8164 20.7353 19.8164 21.7711C19.8164 23.237 21.1419 24.4206 23.8996 26.747C24.1555 26.9633 24.4199 27.1868 24.6914 27.4176C24.963 27.1868 25.2274 26.9646 25.4821 26.7483C27.3391 25.1821 29.5665 23.4294 29.5665 21.7711C29.5665 20.7353 28.9404 19.6875 27.7436 19.6875Z" fill="white"/>
<path d="M36.9961 23.3789C36.9961 17.9725 33.8449 13.2317 29.024 11.0673C29.3846 10.3787 29.6133 9.6162 29.6133 8.80195C29.6133 6.68588 28.265 4.81614 26.2584 4.14807L24.6914 3.62414C22.7117 2.96576 20.8866 1.83643 19.4102 0.361594C19.1805 0.13125 18.8591 0 18.5391 0H11.1562C10.6263 0 10.1565 0.338871 9.98944 0.841148L8.71328 4.66955C7.84809 7.26387 8.14012 10.1081 9.51234 12.4717C11.0732 15.1598 10.6239 18.5928 8.3936 21.0165C6.20796 23.3933 5.00391 26.4803 5.00391 29.7091C5.00391 32.253 5.74891 34.715 7.15961 36.8288L10.1324 41.452C10.3607 41.7945 10.7453 42 11.1562 42H25.9218C26.6019 42 27.1523 41.4497 27.1523 40.7695C27.1523 39.3352 26.8574 37.8093 26.3589 36.5503C32.5174 35.2163 36.9961 29.8539 36.9961 23.3789ZM27.0695 28.6288C26.5756 29.0458 26.0493 29.4904 25.4978 29.9686C25.2659 30.1693 24.9787 30.269 24.6915 30.269C24.4043 30.269 24.1171 30.1693 23.8852 29.9686C23.3325 29.4892 22.8062 29.0458 22.3123 28.6276C19.4344 26.2003 17.3555 24.4459 17.3555 21.7711C17.3554 19.2225 19.2372 17.2266 21.6393 17.2266C22.9911 17.2266 23.9932 17.8442 24.6914 18.6217C25.3896 17.8442 26.3918 17.2266 27.7435 17.2266C30.1456 17.2266 32.0274 19.2225 32.0274 21.7711C32.0274 24.6419 29.4895 26.5876 27.0695 28.6288Z" fill="white"/>
</svg>
