<svg width="140" height="140" viewBox="0 0 140 140" fill="none" xmlns="http://www.w3.org/2000/svg">
<g filter="url(#filter0_d_191_34)">
<rect x="30" y="20" width="80" height="80" rx="20" fill="#95CF62"/>
<rect x="30" y="20" width="80" height="80" rx="20" fill="url(#paint0_linear_191_34)" fill-opacity="0.3"/>
<path d="M87.6836 77.539H87.2437L85.7531 59.5019C85.6311 58.0245 84.3742 56.8672 82.8917 56.8672H81.5312C81.5312 57.7634 81.2893 58.6035 80.8691 59.3281H82.8917C83.1035 59.3281 83.2831 59.4934 83.3004 59.7045L83.6761 64.25H75.2848L75.4882 61.7891H73.0189L71.7172 77.539H71.2773C70.5978 77.539 70.0469 78.09 70.0469 78.7695C70.0469 79.4491 70.5978 80 71.2773 80H74.5586C75.2381 80 75.7891 79.4491 75.7891 78.7695C75.7891 78.09 75.2381 77.539 74.5586 77.539H74.1866L75.0815 66.7109H83.8795L84.7743 77.539H84.4023C83.7228 77.539 83.1719 78.09 83.1719 78.7695C83.1719 79.4491 83.7228 80 84.4023 80H87.6836C88.3631 80 88.914 79.4491 88.914 78.7695C88.914 78.09 88.3631 77.539 87.6836 77.539Z" fill="white"/>
<path d="M53.2309 77.455C54.408 78.1346 55.9131 77.7313 56.5926 76.5542L56.9219 75.9839V66.1401L52.3301 74.0933C51.6506 75.2704 52.0538 76.7754 53.2309 77.455Z" fill="white"/>
<path d="M79.0703 56.8671C79.0703 55.508 77.9685 54.4062 76.6094 54.4062H71.6875V48.423C69.7188 47.1892 68.4062 45.0014 68.4062 42.5116C68.4062 42.1044 68.4433 41.706 68.5106 41.3178C68.3423 41.2943 68.1707 41.2812 67.9961 41.2812H67.9959C61.8799 41.2812 56.9219 46.2393 56.9219 52.3554V57.2772C56.9219 57.5435 57.0083 57.8026 57.168 58.0155L59.3828 60.9686V77.4878C59.3828 78.8287 60.4342 79.9622 61.7746 79.999C63.1653 80.037 64.3047 78.9211 64.3047 77.5389V52.8003C64.3047 52.1377 64.8138 51.5676 65.4757 51.5365C66.1823 51.5032 66.7656 52.0662 66.7656 52.7655V57.2557C66.7656 58.3552 67.6649 59.2778 68.7641 59.3058L76.6094 59.328C77.9685 59.328 79.0703 58.2263 79.0703 56.8671Z" fill="white"/>
<path d="M75.3789 47.0234C77.8707 47.0234 79.8906 45.0035 79.8906 42.5117C79.8906 40.02 77.8707 38 75.3789 38C72.8872 38 70.8672 40.02 70.8672 42.5117C70.8672 45.0035 72.8872 47.0234 75.3789 47.0234Z" fill="white"/>
</g>
<defs>
<filter id="filter0_d_191_34" x="0" y="0" width="140" height="140" filterUnits="userSpaceOnUse" color-interpolation-filters="sRGB">
<feFlood flood-opacity="0" result="BackgroundImageFix"/>
<feColorMatrix in="SourceAlpha" type="matrix" values="0 0 0 0 0 0 0 0 0 0 0 0 0 0 0 0 0 0 127 0" result="hardAlpha"/>
<feOffset dy="10"/>
<feGaussianBlur stdDeviation="15"/>
<feComposite in2="hardAlpha" operator="out"/>
<feColorMatrix type="matrix" values="0 0 0 0 0.444157 0 0 0 0 0.811765 0 0 0 0 0.384314 0 0 0 0.35 0"/>
<feBlend mode="normal" in2="BackgroundImageFix" result="effect1_dropShadow_191_34"/>
<feBlend mode="normal" in="SourceGraphic" in2="effect1_dropShadow_191_34" result="shape"/>
</filter>
<linearGradient id="paint0_linear_191_34" x1="42" y1="28" x2="90.5" y2="93.5" gradientUnits="userSpaceOnUse">
<stop stop-color="white"/>
<stop offset="1" stop-color="white" stop-opacity="0"/>
</linearGradient>
</defs>
</svg>
