<svg width="25" height="42" viewBox="0 0 25 42" fill="none" xmlns="http://www.w3.org/2000/svg">
<path d="M12.3269 8.21721C13.0833 8.21721 13.6965 7.60402 13.6965 6.84762C13.6965 6.09121 13.0833 5.47803 12.3269 5.47803C11.5705 5.47803 10.9573 6.09121 10.9573 6.84762C10.9573 7.60402 11.5705 8.21721 12.3269 8.21721Z" fill="white"/>
<path d="M15.2315 21.5111C14.6966 20.977 13.829 20.9762 13.2939 21.512C12.7785 22.0292 11.8744 22.0292 11.3591 21.512C10.8242 20.9762 9.95666 20.9771 9.42157 21.5111C8.88665 22.0456 8.88665 22.9128 9.42067 23.4478C10.1965 24.2243 11.229 24.6519 12.3266 24.6519C13.4242 24.6519 14.4567 24.2244 15.2325 23.4478C15.7665 22.9129 15.7665 22.0457 15.2315 21.5111Z" fill="white"/>
<path d="M24.6521 20.5435C24.6521 15.7731 24.6521 11.6032 24.6521 6.84779C24.6521 3.07174 21.5804 0 17.8044 0H6.84779C3.07174 0 0 3.07174 0 6.84779C0 11.6051 0 15.7709 0 20.5435C0 25.3646 3.57729 29.3662 8.21738 30.0328V31.4999C8.21738 32.2551 7.60297 32.8695 6.84779 32.8695H4.10869C1.84308 32.8695 0 34.7126 0 36.9782V40.6304C0 41.387 0.61351 42 1.36959 42H23.2826C24.0386 42 24.6521 41.387 24.6521 40.6304V36.9782C24.6521 34.7126 22.8091 32.8695 20.5435 32.8695H17.8044C17.0492 32.8695 16.4348 32.2551 16.4348 31.4999V30.0328C21.0749 29.3662 24.6521 25.3646 24.6521 20.5435ZM12.3261 2.7391C14.5917 2.7391 16.4348 4.58217 16.4348 6.84779C16.4348 9.11341 14.5917 10.9565 12.3261 10.9565C10.0605 10.9565 8.21738 9.11341 8.21738 6.84779C8.21738 4.58217 10.0605 2.7391 12.3261 2.7391ZM15.0652 27.3912C14.3091 27.3912 13.6956 28.0043 13.6956 28.7608V31.4999C13.6956 32.1323 13.8509 32.7247 14.1073 33.2602L12.3261 35.0415L10.5449 33.2603C10.8011 32.7247 10.9566 32.1323 10.9566 31.5V28.7609C10.9566 28.0043 10.3431 27.3913 9.58697 27.3913C5.81092 27.3913 2.73918 24.3196 2.73918 20.5435V13.6957H21.913V20.5435C21.913 24.3195 18.8412 27.3912 15.0652 27.3912Z" fill="white"/>
</svg>
