<svg width="140" height="140" viewBox="0 0 140 140" fill="none" xmlns="http://www.w3.org/2000/svg">
<g filter="url(#filter0_d_191_35)">
<rect x="30" y="20" width="80" height="80" rx="20" fill="#95CF62"/>
<rect x="30" y="20" width="80" height="80" rx="20" fill="url(#paint0_linear_191_35)" fill-opacity="0.3"/>
<path d="M70.3269 46.2172C71.0833 46.2172 71.6965 45.604 71.6965 44.8476C71.6965 44.0912 71.0833 43.478 70.3269 43.478C69.5705 43.478 68.9573 44.0912 68.9573 44.8476C68.9573 45.604 69.5705 46.2172 70.3269 46.2172Z" fill="white"/>
<path d="M73.2315 59.5111C72.6966 58.977 71.829 58.9762 71.2939 59.512C70.7785 60.0292 69.8744 60.0292 69.3591 59.512C68.8242 58.9762 67.9567 58.9771 67.4216 59.5111C66.8866 60.0456 66.8866 60.9128 67.4207 61.4478C68.1965 62.2243 69.229 62.6519 70.3266 62.6519C71.4242 62.6519 72.4567 62.2244 73.2325 61.4478C73.7665 60.9129 73.7665 60.0457 73.2315 59.5111Z" fill="white"/>
<path d="M82.6521 58.5435C82.6521 53.7731 82.6521 49.6032 82.6521 44.8478C82.6521 41.0717 79.5804 38 75.8044 38H64.8478C61.0717 38 58 41.0717 58 44.8478C58 49.6051 58 53.7709 58 58.5435C58 63.3646 61.5773 67.3662 66.2174 68.0328V69.4999C66.2174 70.2551 65.603 70.8695 64.8478 70.8695H62.1087C59.8431 70.8695 58 72.7126 58 74.9782V78.6304C58 79.387 58.6135 80 59.3696 80H81.2826C82.0386 80 82.6521 79.387 82.6521 78.6304V74.9782C82.6521 72.7126 80.8091 70.8695 78.5435 70.8695H75.8044C75.0492 70.8695 74.4348 70.2551 74.4348 69.4999V68.0328C79.0749 67.3662 82.6521 63.3646 82.6521 58.5435ZM70.3261 40.7391C72.5917 40.7391 74.4348 42.5822 74.4348 44.8478C74.4348 47.1134 72.5917 48.9565 70.3261 48.9565C68.0605 48.9565 66.2174 47.1134 66.2174 44.8478C66.2174 42.5822 68.0605 40.7391 70.3261 40.7391ZM73.0652 65.3912C72.3091 65.3912 71.6956 66.0043 71.6956 66.7608V69.4999C71.6956 70.1323 71.8509 70.7247 72.1073 71.2602L70.3261 73.0415L68.5449 71.2603C68.8011 70.7247 68.9566 70.1323 68.9566 69.5V66.7609C68.9566 66.0043 68.3431 65.3913 67.587 65.3913C63.8109 65.3913 60.7392 62.3196 60.7392 58.5435V51.6957H79.913V58.5435C79.913 62.3195 76.8412 65.3912 73.0652 65.3912Z" fill="white"/>
</g>
<defs>
<filter id="filter0_d_191_35" x="0" y="0" width="140" height="140" filterUnits="userSpaceOnUse" color-interpolation-filters="sRGB">
<feFlood flood-opacity="0" result="BackgroundImageFix"/>
<feColorMatrix in="SourceAlpha" type="matrix" values="0 0 0 0 0 0 0 0 0 0 0 0 0 0 0 0 0 0 127 0" result="hardAlpha"/>
<feOffset dy="10"/>
<feGaussianBlur stdDeviation="15"/>
<feComposite in2="hardAlpha" operator="out"/>
<feColorMatrix type="matrix" values="0 0 0 0 0.444157 0 0 0 0 0.811765 0 0 0 0 0.384314 0 0 0 0.35 0"/>
<feBlend mode="normal" in2="BackgroundImageFix" result="effect1_dropShadow_191_35"/>
<feBlend mode="normal" in="SourceGraphic" in2="effect1_dropShadow_191_35" result="shape"/>
</filter>
<linearGradient id="paint0_linear_191_35" x1="42" y1="28" x2="90.5" y2="93.5" gradientUnits="userSpaceOnUse">
<stop stop-color="white"/>
<stop offset="1" stop-color="white" stop-opacity="0"/>
</linearGradient>
</defs>
</svg>
