<svg width="29" height="43" viewBox="0 0 29 43" fill="none" xmlns="http://www.w3.org/2000/svg">
<path d="M9.80229 0.114258C7.4863 0.114258 5.60229 2.02277 5.60229 4.36889C5.60229 6.715 7.48622 8.62351 9.80229 8.62351C12.1183 8.62351 14.0023 6.715 14.0023 4.36889C14.0023 2.02277 12.1182 0.114258 9.80229 0.114258Z" fill="white"/>
<path d="M22.2257 34.1661C22.3336 33.8647 22.393 33.5442 22.393 33.2057V25.6419C22.393 24.0779 21.1463 22.8055 19.6023 22.8055H10.9626L11.0819 21.276C11.2315 19.3362 11.1929 18.5135 11.1929 14.2958C11.1929 11.967 8.4854 10.5422 6.60944 12.1464C6.41625 12.3149 5.32614 13.3887 1.23279 17.5483C0.509687 18.2832 0.00142345 18.8265 0.00142345 19.9696C0.00142345 20.7267 0.293125 21.4386 0.822636 21.9755L4.7365 25.9393C3.82243 29.6409 2.64996 34.9448 0.473594 38.2508C-0.390029 39.5602 -0.0379517 41.3141 1.24838 42.1831C2.54783 43.0573 4.27984 42.6936 5.13296 41.3973C7.61095 37.632 8.86578 32.1154 9.89987 28.4783H16.8151L16.8023 33.2057C16.8023 33.5389 16.8698 33.854 16.9743 34.1513H16.3356C12.4756 34.1513 9.33566 37.3321 9.33566 41.2423C9.33566 42.0257 9.96278 42.6605 10.7357 42.6605H27.5356C28.3085 42.6605 28.9357 42.0257 28.9357 41.2423C28.9356 37.4312 25.9506 34.3219 22.2257 34.1661ZM12.3753 39.8241C12.9531 38.1731 14.5099 36.9877 16.3356 36.9877H21.9356C23.7613 36.9877 25.318 38.1732 25.8959 39.8241H12.3753Z" fill="white"/>
</svg>
