<svg width="37" height="42" viewBox="0 0 37 42" fill="none" xmlns="http://www.w3.org/2000/svg">
<path d="M35.6836 39.539H35.2437L33.7531 21.5019C33.6311 20.0245 32.3742 18.8672 30.8917 18.8672H29.5312C29.5312 19.7634 29.2893 20.6035 28.8691 21.3281H30.8917C31.1035 21.3281 31.2831 21.4934 31.3004 21.7045L31.6761 26.25H23.2848L23.4882 23.7891H21.0189L19.7172 39.539H19.2773C18.5978 39.539 18.0469 40.09 18.0469 40.7695C18.0469 41.4491 18.5978 42 19.2773 42H22.5586C23.2381 42 23.7891 41.4491 23.7891 40.7695C23.7891 40.09 23.2381 39.539 22.5586 39.539H22.1866L23.0815 28.7109H31.8795L32.7743 39.539H32.4023C31.7228 39.539 31.1719 40.09 31.1719 40.7695C31.1719 41.4491 31.7228 42 32.4023 42H35.6836C36.3631 42 36.914 41.4491 36.914 40.7695C36.914 40.09 36.3631 39.539 35.6836 39.539Z" fill="white"/>
<path d="M1.23089 39.455C2.40795 40.1346 3.91306 39.7313 4.59261 38.5542L4.92188 37.9839V28.1401L0.330103 36.0933C-0.349443 37.2704 0.053822 38.7754 1.23089 39.455Z" fill="white"/>
<path d="M27.0703 18.8671C27.0703 17.508 25.9685 16.4062 24.6094 16.4062H19.6875V10.423C17.7188 9.18922 16.4062 7.00136 16.4062 4.51164C16.4062 4.10443 16.4433 3.70601 16.5106 3.31775C16.3423 3.29429 16.1707 3.28125 15.9961 3.28125H15.9959C9.87992 3.28125 4.92188 8.2393 4.92188 14.3554V19.2772C4.92188 19.5435 5.00825 19.8026 5.16797 20.0155L7.38281 22.9686V39.4878C7.38281 40.8287 8.4342 41.9622 9.77459 41.999C11.1653 42.037 12.3047 40.9211 12.3047 39.5389V14.8003C12.3047 14.1377 12.8138 13.5676 13.4757 13.5365C14.1823 13.5032 14.7656 14.0662 14.7656 14.7655V19.2557C14.7656 20.3552 15.6649 21.2778 16.7641 21.3058L24.6094 21.328C25.9685 21.328 27.0703 20.2263 27.0703 18.8671Z" fill="white"/>
<path d="M23.3789 9.02343C25.8707 9.02343 27.8906 7.00346 27.8906 4.51171C27.8906 2.01996 25.8707 0 23.3789 0C20.8872 0 18.8672 2.01996 18.8672 4.51171C18.8672 7.00346 20.8872 9.02343 23.3789 9.02343Z" fill="white"/>
</svg>
