<svg width="90" height="90" viewBox="0 0 90 90" fill="none" xmlns="http://www.w3.org/2000/svg">
<path d="M44.5815 15.369C48.6424 15.369 51.9345 12.077 51.9345 8.01607C51.9345 3.95513 48.6424 0.663086 44.5815 0.663086C40.5206 0.663086 37.2285 3.95513 37.2285 8.01607C37.2285 12.077 40.5206 15.369 44.5815 15.369Z" fill="white"/>
<path d="M23.6727 2.73643C23.7507 2.18411 23.9391 1.66736 24.2162 1.20997C23.5659 0.469545 22.615 0 21.5523 0C20.5498 0 19.6461 0.417413 19.001 1.08598C19.3208 1.57331 19.5383 2.13338 19.6236 2.73626H23.6727V2.73643Z" fill="white"/>
<path d="M70.3768 2.73643C70.4534 2.19432 70.6368 1.68674 70.9055 1.23568C70.2549 0.480113 69.2935 0 68.2184 0C67.2279 0 66.3332 0.406845 65.6895 1.06132C66.0181 1.55429 66.2412 2.12335 66.3279 2.73643H70.3768Z" fill="white"/>
<path d="M70.377 10.8506H66.3279C66.1694 11.9732 65.5515 12.9473 64.6706 13.5782V17.712C63.1487 17.712 26.9919 17.712 25.1005 17.712V13.4021C24.3423 12.773 23.8175 11.873 23.6731 10.8506H19.624C19.4678 11.957 18.8656 12.9195 18.0049 13.5511V21.26C18.0049 23.2194 19.5933 24.8078 21.5527 24.8078H35.1461V85.7424C35.1461 88.0938 37.0539 89.9998 39.4051 89.9998C41.7564 89.9998 43.6624 88.0938 43.6624 85.7424V51.7121H45.5006V85.7422C45.5006 88.0936 47.4066 89.9996 49.7578 89.9996C52.1091 89.9996 53.9977 88.0936 53.9977 85.7422C53.9977 85.7149 53.9977 24.8267 53.9977 24.8077H68.218C70.1774 24.8077 71.7659 23.2192 71.7659 21.2598V13.3692C71.0288 12.7416 70.5189 11.8555 70.377 10.8506Z" fill="white"/>
<path d="M25.4352 10.2788C25.4352 11.5236 26.4444 12.5328 27.6893 12.5328C28.9341 12.5328 29.9433 11.5236 29.9433 10.2788V3.30872C29.9433 2.06388 28.9341 1.05469 27.6893 1.05469C26.4444 1.05469 25.4352 2.06388 25.4352 3.30872V4.53964H17.8616V3.30872C17.8616 2.06388 16.8524 1.05469 15.6075 1.05469C14.3627 1.05469 13.3535 2.06388 13.3535 3.30872V10.2786C13.3535 11.5235 14.3627 12.5327 15.6075 12.5327C16.8524 12.5327 17.8616 11.5235 17.8616 10.2786V9.0477H25.4352V10.2788Z" fill="white"/>
<path d="M74.3934 1.05469C73.1485 1.05469 72.1393 2.06388 72.1393 3.30872V4.53964H64.5657V3.30872C64.5657 2.06388 63.5565 1.05469 62.3116 1.05469C61.0668 1.05469 60.0576 2.06388 60.0576 3.30872V10.2786C60.0576 11.5235 61.0668 12.5327 62.3116 12.5327C63.5565 12.5327 64.5657 11.5235 64.5657 10.2786V9.0477H72.1393V10.2786C72.1393 11.5235 73.1485 12.5327 74.3934 12.5327C75.6382 12.5327 76.6474 11.5235 76.6474 10.2786V3.30872C76.6476 2.06388 75.6382 1.05469 74.3934 1.05469Z" fill="white"/>
</svg>
