<svg width="42" height="42" viewBox="0 0 42 42" fill="none" xmlns="http://www.w3.org/2000/svg">
<g clip-path="url(#clip0_631_262)">
<path d="M35.9039 0H6.09549C3.10652 0 0.675781 2.43074 0.675781 5.4197V29.8084C0.675781 32.7973 3.10652 35.2281 6.09549 35.2281V40.6451C6.09549 41.1708 6.39899 41.6477 6.87592 41.8726C7.05748 41.9566 7.2553 42 7.45041 42C7.76205 42 8.07097 41.8943 8.31756 41.6857L16.0705 35.2281H35.9039C38.8928 35.2281 41.3236 32.7973 41.3236 29.8084V5.4197C41.3236 2.43074 38.8928 0 35.9039 0ZM10.1603 16.2591C12.4013 16.2591 14.225 18.0828 14.225 20.3239C14.225 22.5649 12.4013 24.3887 10.1603 24.3887H7.45041C6.70249 24.3887 6.09549 23.7817 6.09549 23.0337C6.09549 22.2858 6.70249 21.6788 7.45041 21.6788H10.1603C10.9082 21.6788 11.5152 21.0718 11.5152 20.3239C11.5152 19.576 10.9082 18.969 10.1603 18.969C7.91922 18.969 6.09549 17.1452 6.09549 14.9042C6.09549 12.6631 7.91922 10.8394 10.1603 10.8394H12.8701C13.618 10.8394 14.225 11.4464 14.225 12.1943C14.225 12.9423 13.618 13.5493 12.8701 13.5493H10.1603C9.41235 13.5493 8.80534 14.1563 8.80534 14.9042C8.80534 15.6521 9.41235 16.2591 10.1603 16.2591ZM25.0645 23.0337C25.0645 23.7817 24.4574 24.3887 23.7095 24.3887C22.9616 24.3887 22.3546 23.7817 22.3546 23.0337V17.9338L22.211 18.221C21.7503 19.1397 20.2463 19.1397 19.7857 18.221L19.6447 17.9338V23.0337C19.6447 23.7817 19.0377 24.3887 18.2898 24.3887C17.5419 24.3887 16.9349 23.7817 16.9349 23.0337V12.1943C16.9349 11.5656 17.3685 11.0183 17.9782 10.8746C18.5825 10.7283 19.2193 11.0264 19.5011 11.5873L20.9997 14.5844L22.4982 11.59C22.7773 11.0237 23.3979 10.731 24.0212 10.8746C24.6336 11.0183 25.0645 11.5656 25.0645 12.1943V23.0337ZM31.8391 16.2591C34.0801 16.2591 35.9039 18.0828 35.9039 20.3239C35.9039 22.5649 34.0801 24.3887 31.8391 24.3887H29.1292C28.3813 24.3887 27.7743 23.7817 27.7743 23.0337C27.7743 22.2858 28.3813 21.6788 29.1292 21.6788H31.8391C32.5843 21.6788 33.194 21.0718 33.194 20.3239C33.194 19.576 32.5843 18.969 31.8391 18.969C29.598 18.969 27.7743 17.1452 27.7743 14.9042C27.7743 12.6631 29.598 10.8394 31.8391 10.8394H34.5489C35.2969 10.8394 35.9039 11.4464 35.9039 12.1943C35.9039 12.9423 35.2969 13.5493 34.5489 13.5493H31.8391C31.0939 13.5493 30.4842 14.1563 30.4842 14.9042C30.4842 15.6521 31.0939 16.2591 31.8391 16.2591Z" fill="white"/>
</g>
<defs>
<clipPath id="clip0_631_262">
<rect width="42" height="42" fill="white"/>
</clipPath>
</defs>
</svg>
