<svg width="136" height="136" viewBox="0 0 136 136" fill="none" xmlns="http://www.w3.org/2000/svg">
<path d="M94.3441 70.1875C96.3259 70.1875 98.1919 69.3147 99.4584 67.7922L108.401 57.0625H124.875C130.906 57.0625 135.812 52.1559 135.812 46.125V24.25C135.812 18.2191 130.906 13.3125 124.875 13.3125H113.938C113.938 6.07406 108.051 0.1875 100.812 0.1875C93.5741 0.1875 87.6875 6.07406 87.6875 13.3125H76.75C70.7191 13.3125 65.8125 18.2191 65.8125 24.25V36.3272C61.6497 32.8841 56.3122 30.8125 50.5 30.8125H48.3125C41.0588 30.8125 34.1156 34.1484 29.5744 39.7791C22.6509 41.4503 17.6875 47.7022 17.6875 54.875C17.6875 62.4263 20.925 69.505 26.5556 74.4947C27.2884 81.2978 31.5037 87.0553 37.375 89.9844V94.705L22.1106 98.2969C9.20219 101.333 0.1875 112.717 0.1875 125.978V135.812H92.0625V125.978C92.0625 121.692 91.1087 117.61 89.4003 113.938H97.5991L106.542 124.665C107.808 126.19 109.674 127.062 111.656 127.062C115.327 127.062 118.312 124.077 118.312 120.406V113.938H124.875C130.906 113.938 135.812 109.031 135.812 103V85.5C135.812 79.4691 130.906 74.5625 124.875 74.5625H81.125C75.0941 74.5625 70.1875 79.4691 70.1875 85.5V98.31C70.17 98.3056 70.1547 98.2991 70.1394 98.2969L54.875 94.705V89.9844C60.7463 87.0553 64.9616 81.2956 65.6944 74.4947C70.7759 69.9906 73.8844 63.7847 74.4422 57.0625H87.6875V63.5309C87.6875 67.2016 90.6734 70.1875 94.3441 70.1875ZM100.812 4.5625C105.638 4.5625 109.562 8.48687 109.562 13.3125C109.562 18.1381 105.638 22.0625 100.812 22.0625C95.9869 22.0625 92.0625 18.1381 92.0625 13.3125C92.0625 8.48687 95.9869 4.5625 100.812 4.5625ZM38.6722 98.8941L43.3906 105.188L38.2959 111.98L33.8903 100.018L38.6722 98.8941ZM46.125 108.832L52.1538 116.869L46.7878 131.438H45.4644L40.0984 116.869L46.125 108.832ZM4.5625 125.978C4.5625 114.756 12.1903 105.124 23.1147 102.554L29.5962 101.029L40.8006 131.438H22.0625V120.5C22.0625 119.292 21.0831 118.312 19.875 118.312C18.6669 118.312 17.6875 119.292 17.6875 120.5V131.438H4.5625V125.978ZM74.5625 85.5C74.5625 81.8819 77.5069 78.9375 81.125 78.9375H124.875C128.493 78.9375 131.438 81.8819 131.438 85.5V103C131.438 106.618 128.493 109.562 124.875 109.562H113.938V120.406C113.938 121.664 112.914 122.688 111.656 122.688C110.976 122.688 110.337 122.388 109.904 121.867L99.6509 109.562H86.8562C83.8178 105.257 79.5981 101.814 74.5625 99.7297V85.5ZM87.6875 125.978V131.438H74.5625V120.5C74.5625 119.292 73.5831 118.312 72.375 118.312C71.1669 118.312 70.1875 119.292 70.1875 120.5V131.438H51.4494L62.6516 101.029L69.1331 102.554C80.0597 105.126 87.6875 114.758 87.6875 125.978ZM58.3619 100.021L53.9562 111.982L48.8594 105.188L53.5778 98.8941L58.3619 100.021ZM50.5 95.7091L46.125 101.543L41.75 95.7091V91.555C43.1588 91.8766 44.62 92.0625 46.125 92.0625C47.63 92.0625 49.0913 91.8766 50.5 91.555V95.7091ZM61.4375 72.375C61.4375 80.8187 54.5666 87.6875 46.125 87.6875C37.6834 87.6875 30.8125 80.8187 30.8125 72.375V62.1003C30.8125 60.5275 32.09 59.25 33.6628 59.25C34.2272 59.25 34.7741 59.4162 35.2444 59.7291L41.0872 63.625H54.875C58.4931 63.625 61.4375 66.5694 61.4375 70.1875V72.375ZM65.6178 68.2538C64.6969 63.1459 60.2431 59.25 54.875 59.25H42.4128L37.6703 56.0891C36.4803 55.295 35.0934 54.875 33.6628 54.875C29.6772 54.875 26.4375 58.1147 26.4375 62.1003V67.9716C23.6287 64.2266 22.0625 59.6634 22.0625 54.875C22.0625 49.5769 25.8337 44.9766 31.0312 43.9375L32.0637 43.7297L32.5625 43.0625C36.2616 38.1319 42.1503 35.1875 48.3125 35.1875H50.5C61.3566 35.1875 70.1875 44.0206 70.1875 54.875C70.1875 59.7816 68.5578 64.4584 65.6178 68.2538ZM74.4509 52.6875C74.0616 48.3956 72.5391 44.4297 70.1875 41.0828V24.25C70.1875 20.6319 73.1319 17.6875 76.75 17.6875H88.4531C89.2931 20.0544 90.7872 22.1063 92.7275 23.6309C84.66 26.8531 78.9375 34.7325 78.9375 43.9375V46.3125C78.9375 47.4171 79.8329 48.3125 80.9375 48.3125H120.688C121.792 48.3125 122.688 47.4171 122.688 46.3125V43.9375C122.688 34.7325 116.965 26.8531 108.898 23.6309C110.838 22.1063 112.332 20.0544 113.172 17.6875H124.875C128.493 17.6875 131.438 20.6319 131.438 24.25V46.125C131.438 49.7431 128.493 52.6875 124.875 52.6875H106.349L96.0941 64.9922C95.6631 65.5128 95.0244 65.8125 94.3441 65.8125C93.0863 65.8125 92.0625 64.7888 92.0625 63.5309V52.6875H74.4509ZM100.812 26.4375C110.462 26.4375 118.312 34.2884 118.312 43.9375H83.3125C83.3125 34.2884 91.1634 26.4375 100.812 26.4375Z" fill="white"/>
</svg>
