<svg width="116" height="132" viewBox="0 0 116 132" fill="none" xmlns="http://www.w3.org/2000/svg">
<path d="M88.4654 127.591H31.0085C29.8535 127.591 28.9172 128.528 28.9172 129.683C28.9172 130.838 29.8535 131.774 31.0085 131.774H88.4654C89.6204 131.774 90.5566 130.838 90.5566 129.683C90.5566 128.528 89.6204 127.591 88.4654 127.591Z" fill="white"/>
<path d="M21.8166 127.591C20.6616 127.591 19.7253 128.528 19.7253 129.683C19.7253 130.838 20.6616 131.774 21.8166 131.774H24.1113C25.2663 131.774 26.2025 130.838 26.2025 129.683C26.2025 128.528 25.2663 127.591 24.1113 127.591H21.8166Z" fill="white"/>
<path d="M97.6682 127.591H95.3735C94.2185 127.591 93.2822 128.528 93.2822 129.683C93.2822 130.838 94.2185 131.774 95.3735 131.774H97.6682C98.8232 131.774 99.7594 130.838 99.7594 129.683C99.7572 128.528 98.821 127.591 97.6682 127.591Z" fill="white"/>
<path d="M98.6898 0.226318H17.3104C16.1554 0.226318 15.2191 1.16257 15.2191 2.31757V28.5326H8.37882C4.17663 28.5326 0.757568 31.9516 0.757568 36.1516V94.932C0.757568 99.1341 4.17663 102.553 8.37882 102.553H49.4907C49.3638 105.366 47.9398 110.888 36.9563 119.421C36.2519 119.97 35.9719 120.906 36.2629 121.751C36.5516 122.595 37.3479 123.164 38.2404 123.164H59.5488H60.1373H81.4457C82.3251 123.164 83.1104 122.613 83.4101 121.786C83.7098 120.959 83.4604 120.034 82.7844 119.469C72.8051 111.13 70.7598 105.554 70.3376 102.555H107.621C111.824 102.555 115.243 99.1363 115.243 94.9341V36.1516C115.243 31.9516 111.824 28.5326 107.621 28.5326H100.781V2.31757C100.781 1.16257 99.8448 0.226318 98.6898 0.226318ZM19.4016 4.40882H96.5985V88.0326H19.4016V4.40882ZM8.37882 32.7151H15.2191V88.2251H4.94007V36.1516C4.94007 34.2573 6.48226 32.7151 8.37882 32.7151ZM76.0994 118.981H60.1373H59.5488H43.8469C52.2644 110.813 53.5441 105.723 53.6623 102.553H66.1179C66.4263 105.574 68.0232 110.708 76.0994 118.981ZM107.621 98.3707H8.37882C6.48226 98.3707 4.94007 96.8285 4.94007 94.932V92.4054H111.06V94.932C111.06 96.8285 109.518 98.3707 107.621 98.3707ZM107.621 32.7151C109.518 32.7151 111.06 34.2573 111.06 36.1516V88.2251H100.781V32.7151H107.621Z" fill="white"/>
<path d="M31.748 60.6539H84.2502C85.4052 60.6539 86.3414 59.7177 86.3414 58.5627C86.3414 57.4077 85.4052 56.4714 84.2502 56.4714H31.748C30.593 56.4714 29.6567 57.4077 29.6567 58.5627C29.6589 59.7177 30.5952 60.6539 31.748 60.6539Z" fill="white"/>
<path d="M70.4646 66.0134H45.5358C44.3808 66.0134 43.4446 66.9497 43.4446 68.1047C43.4446 69.2597 44.3808 70.1959 45.5358 70.1959H70.4646C71.6196 70.1959 72.5558 69.2597 72.5558 68.1047C72.5558 66.9497 71.6196 66.0134 70.4646 66.0134Z" fill="white"/>
<path d="M62.1061 74.947H53.8942C52.7392 74.947 51.803 75.8833 51.803 77.0383C51.803 78.1933 52.7392 79.1295 53.8942 79.1295H62.1061C63.2611 79.1295 64.1974 78.1933 64.1974 77.0383C64.1974 75.8811 63.2611 74.947 62.1061 74.947Z" fill="white"/>
<path d="M55.9897 47.2314C63.6744 47.2314 70.53 42.3555 73.0479 35.1017C73.4263 34.0102 72.8488 32.818 71.7572 32.4417C70.6657 32.0567 69.4757 32.6408 69.0972 33.7302C68.5679 35.257 67.7694 36.6286 66.796 37.8427C64.0222 34.7167 60.1329 32.8902 55.9854 32.8902C51.8225 32.8902 47.9485 34.7211 45.1769 37.8492C43.2672 35.4736 42.1188 32.4614 42.1188 29.1823C42.1188 21.5327 48.3422 15.3114 55.9897 15.3114C60.3341 15.3114 64.346 17.2889 66.9994 20.743C67.7038 21.6573 69.0163 21.8302 69.9307 21.1258C70.8472 20.4214 71.0179 19.1111 70.3135 18.1945C66.8638 13.7036 61.6422 11.1289 55.9897 11.1289C46.0366 11.1289 37.9385 19.227 37.9385 29.1802C37.9385 39.1333 46.0366 47.2314 55.9897 47.2314ZM55.9854 36.6505C59.0894 36.6505 62.0097 38.0483 64.0813 40.437C61.7757 42.093 58.9647 43.0467 55.9897 43.0467C52.9732 43.0467 50.1863 42.0689 47.9069 40.4261C49.9763 38.0439 52.8769 36.6505 55.9854 36.6505Z" fill="white"/>
<path d="M50.0024 23.9083C50.0024 27.1174 52.564 30.7071 55.9896 30.7071C59.4174 30.7071 61.9768 27.1174 61.9768 23.9083C61.9768 20.6074 59.2906 17.9189 55.9896 17.9189C52.6887 17.9189 50.0024 20.6074 50.0024 23.9083ZM58.2143 23.9083C58.2143 25.328 57.0287 26.9424 55.9896 26.9424C54.9506 26.9424 53.7649 25.328 53.7649 23.9083C53.7649 22.6811 54.7624 21.6858 55.9896 21.6858C57.2168 21.6858 58.2143 22.6811 58.2143 23.9083Z" fill="white"/>
<path d="M67.7563 23.7508C66.866 23.0224 65.5469 23.1515 64.8141 24.0418C64.0813 24.9343 64.2126 26.2511 65.1051 26.984L68.6401 29.8824C69.0272 30.2018 69.4976 30.3571 69.9635 30.3571C70.5672 30.3571 71.1688 30.0968 71.5801 29.5915L77.5869 22.2699C78.3197 21.3774 78.1885 20.0605 77.296 19.3277C76.4057 18.5993 75.0866 18.7283 74.3538 19.6186L69.6726 25.3236L67.7563 23.7508Z" fill="white"/>
</svg>
