<svg width="172" height="130" viewBox="0 0 172 130" fill="none" xmlns="http://www.w3.org/2000/svg">
<path d="M171.066 113.692C171.066 109.625 168.11 106.253 164.17 105.633C164.18 105.205 164.177 104.774 164.154 104.341C163.681 95.2439 155.937 88.266 146.84 88.7384L143.403 88.9168C139.135 89.139 135.327 90.975 132.539 93.8006C128.379 90.2088 118.031 83.0054 101.935 83.0054L84.886 82.845L81.5967 59.0421C81.1005 55.699 80.3247 52.3722 79.2906 49.1537C79.2863 49.141 79.2823 49.1283 79.2779 49.1156L69.882 21.4103C69.862 21.1598 69.5259 20.4444 70.009 19.7548C71.5446 17.5644 73.2178 15.9496 79.2248 9.55202C83.3899 5.13337 78.5482 -1.85426 72.9833 0.456799C72.9729 0.461142 72.9625 0.465486 72.9522 0.469829L56.8513 7.41035C54.0327 8.62552 52.73 11.7592 53.4433 14.2827L55.8937 22.968L60.5509 56.8129C61.0548 60.4731 61.01 64.1771 60.4183 67.824L59.0237 73.964C58.9342 73.9362 54.599 72.2994 49.1046 71.3118L23.6447 66.4093C22.2915 66.149 20.9825 67.0351 20.7215 68.3886C20.4609 69.7424 21.347 71.0511 22.7008 71.3118L48.1908 76.2195C53.8426 77.2356 57.6094 78.7775 57.9091 78.8724L56.9435 83.1243C56.2392 86.2249 56.3157 89.3959 57.0989 92.3812C53.3114 90.2463 49.3214 88.1834 46.2292 86.7214C46.2228 86.7187 46.2165 86.715 46.2101 86.7123C44.8135 86.0525 43.599 85.5142 42.6746 85.1504L17.5914 74.8874L19.0601 70.6108L25.434 71.838C26.7885 72.0996 28.0965 71.2125 28.3572 69.859C28.6178 68.5052 27.7317 67.1968 26.3782 66.9362L17.8991 65.3034C17.7307 65.2439 16.989 65.2503 16.572 64.5717C15.1701 62.2904 14.3572 60.117 10.87 52.0395C8.46542 46.4387 0.0962245 48.1484 0.00100234 54.1454C0 54.1611 0 54.1758 0 54.1912L0.0410959 71.7124C0.0340795 74.7658 2.35115 77.2316 4.95757 77.5757L7.84196 77.9543C2.89542 82.3311 0 88.5146 0 95.2055V98.3395C0 105.32 3.2302 111.753 8.47744 116.122H6.93885C3.11259 116.122 0 119.235 0 123.061C0 126.887 3.11259 130 6.93885 130H164.127C167.953 130 171.066 126.887 171.066 123.061C171.066 121.361 170.449 119.803 169.43 118.595C170.491 117.188 171.066 115.484 171.066 113.692ZM166.073 113.692C166.073 114.627 165.676 115.53 164.872 116.164C164.627 116.137 164.379 116.122 164.127 116.122H160.873C160.705 115.984 160.637 115.934 160.432 115.68C161.682 114.163 162.657 112.426 163.298 110.546C164.855 110.742 166.073 112.06 166.073 113.692ZM159.169 104.6C159.441 109.835 156.194 114.524 151.239 116.122H140.221C140.041 116.054 139.86 115.988 139.684 115.912L145.633 110.09C146.007 109.725 146.499 109.509 147.021 109.482C150.949 109.277 153.98 105.914 153.775 101.986L153.424 95.2362C156.748 97.1577 158.961 100.606 159.169 104.6ZM143.662 93.9021L147.099 93.7237C147.518 93.702 147.934 93.7047 148.347 93.7271L148.79 102.246C148.851 103.425 147.941 104.435 146.762 104.496C145.026 104.586 143.385 105.306 142.142 106.522L135.592 112.931C133.94 111.039 132.923 108.613 132.786 105.972C132.457 99.6459 137.336 94.2316 143.662 93.9021ZM129.592 97.8757C128.309 100.375 127.644 103.23 127.8 106.232C127.995 109.978 129.424 113.422 131.746 116.122H126.131C126.447 115.224 126.615 114.265 126.615 113.282C126.615 107.881 121.642 104.24 117.734 104.727L111.44 105.507C110.072 105.676 109.1 106.922 109.269 108.291C109.439 109.659 110.686 110.629 112.053 110.461L118.175 109.703C120.088 109.774 121.623 111.353 121.623 113.283C121.623 114.406 121.094 115.45 120.217 116.123H74.731C83.0527 113.521 101.934 111.888 114.113 110.206C115.481 110.037 116.453 108.79 116.284 107.422C116.115 106.053 114.867 105.086 113.5 105.251L95.4577 107.485L80.9706 102.493C81.1042 101.467 80.742 95.2633 84.2472 87.8316L101.912 87.9977C116.815 87.9973 126.307 94.9887 129.592 97.8757ZM4.99231 98.3395V95.2055C4.99231 93.2777 5.30371 91.403 5.88941 89.6305C10.4734 91.3559 17.7695 92.9068 25.598 92.9068C29.9669 92.9068 36.7962 92.275 42.6238 90.5536C42.8503 90.6552 43.0828 90.7608 43.3257 90.8731C43.874 92.2239 44.1587 93.6425 44.167 95.1003L44.1674 98.3398C44.1674 99.4952 44.0498 100.63 43.8312 101.737C38.1607 103.421 30.7447 104.182 25.598 104.182C19.6051 104.182 10.9402 103.186 5.20147 101.015C5.06615 100.138 4.99231 99.2449 4.99231 98.3395ZM49.1593 98.3395L49.159 95.0755C49.1563 94.6211 49.1289 94.1711 49.0899 93.7227C53.8396 96.1921 59.2078 99.2419 62.576 101.605C66.6899 105.487 72.3454 107.447 78.1269 106.794L84.2044 108.888C74.5646 110.248 63.8236 114.406 62.5008 116.123H40.6806C45.9281 111.753 49.1593 105.32 49.1593 98.3395ZM76.6548 59.7498L80.1276 84.8804C75.8887 93.3375 76.0808 101.344 75.9983 101.932C71.8179 101.962 68.0524 100.25 65.3007 97.273C62.009 93.7123 60.737 88.9586 61.8112 84.2299L65.3033 68.8547C65.3144 68.8056 65.3241 68.7561 65.3324 68.7063C66.0167 64.5426 66.0718 60.3118 65.4968 56.132L61.1901 24.8347L65.7069 24.6432L74.5432 50.699C75.4918 53.6536 76.2031 56.7067 76.6548 59.7498ZM60.2098 19.8801L58.2729 13.0158C58.2011 12.5911 58.4283 12.1671 58.8279 11.9954L74.9071 5.06388C75.5426 4.81363 76.0658 5.62552 75.5923 6.12803C69.6014 12.5119 67.729 14.3115 65.9211 16.8898C65.3371 17.7231 64.9726 18.6853 64.8299 19.6843L60.2098 19.8801ZM34.5105 87.2045C31.301 87.6863 28.1183 87.9145 25.598 87.9145C20.296 87.9145 13.1096 86.9686 8.10725 85.149C9.76979 82.7107 12.0448 80.6422 14.8039 79.1414L34.5105 87.2045ZM5.03307 71.7124L4.99198 54.2115C5.01837 53.5717 5.99833 53.3492 6.28199 54.0097C9.57968 61.6425 10.6298 64.4394 12.3177 67.1858C12.8132 67.9923 13.4871 68.6679 14.272 69.1818L12.7664 73.5653L5.70498 72.6385C5.30605 72.5376 5.03207 72.1684 5.03307 71.7124ZM7.20381 106.885C13.8055 108.65 21.4226 109.174 25.598 109.174C30.0778 109.174 36.1878 108.628 41.6358 107.442C39.1857 111.556 35.1146 114.742 30.1263 116.122H19.0331C13.8216 114.68 9.61042 111.267 7.20381 106.885ZM164.127 125.008H6.93885C5.86535 125.008 4.99231 124.134 4.99231 123.061C4.99231 121.988 5.86535 121.114 6.93885 121.114H164.127C165.201 121.114 166.074 121.988 166.074 123.061C166.073 124.135 165.2 125.008 164.127 125.008Z" fill="white"/>
</svg>
