<svg width="172" height="130" fill="none" xmlns="http://www.w3.org/2000/svg"><path d="M171.066 113.692a8.145 8.145 0 00-6.896-8.059c.01-.428.007-.859-.016-1.292-.473-9.097-8.217-16.075-17.314-15.603l-3.437.179a16.417 16.417 0 00-10.864 4.884c-4.16-3.592-14.508-10.796-30.604-10.796l-17.049-.16-3.29-23.803a62.345 62.345 0 00-2.305-9.888l-.013-.038-9.396-27.706c-.02-.25-.356-.966.127-1.655 1.536-2.19 3.209-3.805 9.216-10.203 4.165-4.419-.677-11.406-6.242-9.095l-.03.013L56.85 7.41c-2.818 1.216-4.121 4.35-3.408 6.873l2.45 8.685 4.658 33.845c.504 3.66.459 7.364-.133 11.011l-1.394 6.14c-.09-.028-4.425-1.665-9.92-2.652l-25.46-4.903a2.497 2.497 0 00-.943 4.903l25.49 4.907c5.652 1.017 9.418 2.559 9.718 2.653l-.965 4.252c-.705 3.1-.628 6.272.155 9.257-3.788-2.135-7.778-4.198-10.87-5.66l-.019-.009c-1.397-.66-2.611-1.198-3.535-1.562L17.59 74.887l1.47-4.276 6.373 1.227a2.495 2.495 0 10.944-4.902L17.9 65.303c-.168-.06-.91-.053-1.327-.731-1.402-2.282-2.215-4.455-5.702-12.533C8.465 46.44.096 48.15.001 54.145L0 54.191l.041 17.521c-.007 3.054 2.31 5.52 4.917 5.864l2.884.378C2.895 82.331 0 88.514 0 95.206v3.133c0 6.981 3.23 13.414 8.477 17.783H6.94A6.947 6.947 0 000 123.061 6.947 6.947 0 006.939 130h157.188a6.947 6.947 0 006.939-6.939c0-1.7-.617-3.258-1.636-4.466a8.104 8.104 0 001.636-4.903zm-4.993 0c0 .935-.397 1.838-1.201 2.472a6.79 6.79 0 00-.745-.042h-3.254c-.168-.138-.236-.188-.441-.442a16.394 16.394 0 002.866-5.134 3.167 3.167 0 012.775 3.146zm-6.904-9.092a11.435 11.435 0 01-7.93 11.522h-11.018c-.18-.068-.361-.134-.537-.21l5.949-5.822a2.144 2.144 0 011.388-.608c3.928-.205 6.959-3.568 6.754-7.496l-.351-6.75c3.324 1.922 5.537 5.37 5.745 9.364zm-15.507-10.698l3.437-.178c.419-.022.835-.02 1.248.003l.443 8.519a2.145 2.145 0 01-2.028 2.25 7.132 7.132 0 00-4.62 2.026l-6.55 6.409a11.45 11.45 0 01-2.806-6.959c-.329-6.326 4.55-11.74 10.876-12.07zm-14.07 3.974a16.377 16.377 0 00-1.792 8.356 16.434 16.434 0 003.946 9.89h-5.615a8.553 8.553 0 00.484-2.84c0-5.401-4.973-9.042-8.881-8.555l-6.294.78a2.496 2.496 0 10.613 4.954l6.122-.758a3.587 3.587 0 013.448 3.58 3.581 3.581 0 01-1.406 2.84H74.731c8.322-2.602 27.203-4.235 39.382-5.917a2.497 2.497 0 00-.613-4.955l-18.042 2.234-14.487-4.992c.133-1.026-.229-7.23 3.276-14.661l17.665.166c14.903 0 24.395 6.99 27.68 9.878zm-124.6.463v-3.133c0-1.928.312-3.803.897-5.576 4.584 1.726 11.88 3.277 19.709 3.277 4.369 0 11.198-.632 17.026-2.353.226.101.459.207.702.32.548 1.35.833 2.769.841 4.226v3.24c0 1.155-.117 2.29-.336 3.397-5.67 1.684-13.086 2.445-18.233 2.445-5.993 0-14.658-.996-20.397-3.167a17.571 17.571 0 01-.209-2.675zm44.167 0v-3.263c-.003-.455-.03-.905-.07-1.353 4.75 2.47 10.119 5.519 13.487 7.882a19.454 19.454 0 0015.55 5.189l6.078 2.094c-9.64 1.36-20.38 5.518-21.703 7.235H40.68c5.247-4.37 8.478-10.803 8.478-17.784zm27.496-38.59l3.473 25.131c-4.24 8.458-4.047 16.464-4.13 17.052-4.18.03-7.946-1.682-10.697-4.659-3.292-3.56-4.564-8.314-3.49-13.043l3.492-15.375c.011-.05.021-.099.03-.149a42.1 42.1 0 00.164-12.574L61.19 24.835l4.517-.192L74.543 50.7a57.22 57.22 0 012.112 9.05zM60.21 19.88l-1.937-6.864a.941.941 0 01.555-1.02l16.08-6.932c.635-.25 1.158.562.684 1.064-5.99 6.384-7.863 8.183-9.67 10.762a6.453 6.453 0 00-1.092 2.794l-4.62.196zm-25.7 67.325c-3.209.481-6.392.71-8.912.71-5.302 0-12.488-.946-17.49-2.766 1.662-2.438 3.937-4.507 6.696-6.008l19.707 8.063zM5.034 71.712l-.041-17.5c.026-.64 1.006-.863 1.29-.202 3.298 7.633 4.348 10.43 6.036 13.176a6.398 6.398 0 001.954 1.996l-1.506 4.383-7.061-.927c-.399-.1-.673-.47-.672-.926zm2.17 35.173c6.603 1.765 14.22 2.289 18.395 2.289 4.48 0 10.59-.546 16.038-1.732-2.45 4.114-6.521 7.3-11.51 8.68H19.033c-5.211-1.442-9.423-4.855-11.83-9.237zm156.924 18.123H6.939a1.95 1.95 0 01-1.947-1.947 1.95 1.95 0 011.947-1.947h157.188a1.95 1.95 0 011.947 1.947 1.95 1.95 0 01-1.947 1.947z" fill="#fff"/></svg>