<svg width="116" height="132" fill="none" xmlns="http://www.w3.org/2000/svg"><path d="M88.465 127.591H31.008a2.092 2.092 0 000 4.183h57.457a2.09 2.09 0 100-4.183zm-66.648 0a2.092 2.092 0 000 4.183h2.294a2.09 2.09 0 100-4.183h-2.294zm75.851 0h-2.294a2.092 2.092 0 000 4.183h2.294a2.09 2.09 0 100-4.183zM98.69.226H17.31a2.091 2.091 0 00-2.09 2.092v26.215H8.378c-4.202 0-7.621 3.419-7.621 7.619v58.78c0 4.202 3.419 7.621 7.62 7.621H49.49c-.127 2.813-1.551 8.335-12.535 16.868a2.092 2.092 0 001.284 3.743h43.206a2.09 2.09 0 001.338-3.695c-9.979-8.339-12.024-13.915-12.446-16.914h37.283c4.203 0 7.622-3.419 7.622-7.62V36.151c0-4.2-3.419-7.62-7.622-7.62h-6.84V2.319A2.091 2.091 0 0098.69.226zM19.402 4.41h77.197v83.624H19.401V4.409zM8.379 32.715h6.84v55.51H4.94V36.152a3.442 3.442 0 013.439-3.437zm67.72 86.266H43.847c8.417-8.168 9.697-13.258 9.815-16.428h12.456c.308 3.021 1.905 8.155 9.981 16.428zm31.522-20.61H8.379a3.442 3.442 0 01-3.439-3.439v-2.527h106.12v2.527a3.442 3.442 0 01-3.439 3.439zm0-65.656a3.442 3.442 0 013.439 3.437v52.073h-10.279v-55.51h6.84z" fill="#fff"/><path d="M31.748 60.654H84.25a2.091 2.091 0 100-4.183H31.748a2.091 2.091 0 100 4.183zm38.717 5.359h-24.93a2.091 2.091 0 000 4.183h24.93a2.091 2.091 0 100-4.183zm-8.359 8.934h-8.212a2.091 2.091 0 000 4.182h8.212a2.091 2.091 0 100-4.182zM55.99 47.231c7.684 0 14.54-4.876 17.058-12.13a2.089 2.089 0 00-1.29-2.66 2.085 2.085 0 00-2.66 1.29c-.53 1.526-1.329 2.898-2.302 4.112-2.774-3.126-6.663-4.953-10.81-4.953-4.163 0-8.037 1.831-10.81 4.96a13.788 13.788 0 01-3.057-8.668c0-7.65 6.223-13.87 13.87-13.87 4.345 0 8.357 1.977 11.01 5.431a2.09 2.09 0 003.315-2.548c-3.45-4.491-8.672-7.066-14.324-7.066-9.953 0-18.052 8.098-18.052 18.051 0 9.953 8.099 18.051 18.052 18.051zm-.005-10.58c3.104 0 6.025 1.397 8.096 3.786a13.857 13.857 0 01-8.091 2.61 13.78 13.78 0 01-8.083-2.62c2.07-2.383 4.97-3.776 8.078-3.776z" fill="#fff"/><path d="M50.002 23.908c0 3.21 2.562 6.8 5.988 6.8 3.427 0 5.987-3.59 5.987-6.8 0-3.3-2.686-5.99-5.987-5.99a5.996 5.996 0 00-5.988 5.99zm8.212 0c0 1.42-1.185 3.034-2.224 3.034-1.04 0-2.225-1.614-2.225-3.034a2.225 2.225 0 014.45 0zm9.542-.158a2.09 2.09 0 00-2.651 3.233l3.535 2.9c.387.319.858.474 1.323.474a2.08 2.08 0 001.617-.765l6.007-7.322a2.09 2.09 0 10-3.233-2.651l-4.681 5.705-1.917-1.573z" fill="#fff"/></svg>