<svg width="136" height="136" fill="none" xmlns="http://www.w3.org/2000/svg"><path d="M94.344 70.188a6.635 6.635 0 005.114-2.396l8.943-10.73h16.474c6.031 0 10.937-4.906 10.937-10.937V24.25c0-6.03-4.906-10.938-10.937-10.938h-10.937c0-7.238-5.887-13.124-13.126-13.124-7.238 0-13.124 5.886-13.124 13.124H76.75c-6.03 0-10.938 4.907-10.938 10.938v12.077A23.951 23.951 0 0050.5 30.813h-2.188c-7.253 0-14.196 3.335-18.738 8.966-6.923 1.671-11.887 7.923-11.887 15.096 0 7.551 3.238 14.63 8.869 19.62.732 6.803 4.948 12.56 10.819 15.49v4.72l-15.264 3.592C9.202 101.333.187 112.717.187 125.978v9.834h91.876v-9.834a28.47 28.47 0 00-2.663-12.04h8.2l8.942 10.727a6.627 6.627 0 005.114 2.397 6.662 6.662 0 006.656-6.656v-6.468h6.563c6.031 0 10.937-4.907 10.937-10.938V85.5c0-6.03-4.906-10.938-10.937-10.938h-43.75c-6.03 0-10.938 4.907-10.938 10.938v12.81c-.017-.004-.032-.01-.048-.013l-15.264-3.592v-4.72c5.871-2.93 10.087-8.69 10.82-15.49 5.08-4.504 8.19-10.71 8.747-17.433h13.246v6.469a6.664 6.664 0 006.656 6.657zm6.468-65.626c4.826 0 8.75 3.925 8.75 8.75 0 4.826-3.924 8.75-8.75 8.75-4.825 0-8.75-3.924-8.75-8.75 0-4.825 3.925-8.75 8.75-8.75zm-62.14 94.332l4.719 6.294-5.095 6.792-4.406-11.962 4.782-1.124zm7.453 9.938l6.029 8.037-5.366 14.569h-1.324l-5.366-14.569 6.027-8.037zM4.562 125.978c0-11.222 7.628-20.854 18.553-23.424l6.481-1.525 11.205 30.409H22.062V120.5a2.188 2.188 0 00-4.375 0v10.938H4.563v-5.46zm70-40.478a6.57 6.57 0 016.563-6.563h43.75a6.571 6.571 0 016.563 6.563V103a6.57 6.57 0 01-6.563 6.562h-10.937v10.844a2.285 2.285 0 01-2.282 2.282c-.68 0-1.319-.3-1.752-.821l-10.253-12.305H86.856a28.26 28.26 0 00-12.293-9.832V85.5zm13.126 40.478v5.46H74.561V120.5a2.188 2.188 0 00-4.374 0v10.938H51.448l11.203-30.409 6.481 1.525c10.927 2.572 18.555 12.204 18.555 23.424zm-29.326-25.957l-4.406 11.961-5.097-6.794 4.719-6.294 4.784 1.127zM50.5 95.709l-4.375 5.834-4.375-5.834v-4.154c1.409.322 2.87.507 4.375.507s2.966-.185 4.375-.507v4.154zm10.938-23.334c0 8.444-6.871 15.313-15.313 15.313s-15.313-6.87-15.313-15.313V62.1a2.852 2.852 0 014.432-2.37l5.843 3.895h13.788a6.57 6.57 0 016.563 6.563v2.187zm4.18-4.121c-.921-5.108-5.375-9.004-10.743-9.004H42.413l-4.743-3.16a7.2 7.2 0 00-4.007-1.215 7.231 7.231 0 00-7.225 7.225v5.872a21.783 21.783 0 01-4.375-13.097c0-5.298 3.77-9.898 8.968-10.938l1.033-.207.498-.667a19.787 19.787 0 0115.75-7.876H50.5c10.857 0 19.688 8.834 19.688 19.688 0 4.907-1.63 9.583-4.57 13.379zm8.833-15.567a23.905 23.905 0 00-4.263-11.604V24.25a6.57 6.57 0 016.562-6.563h11.703a13.158 13.158 0 004.275 5.944c-8.068 3.222-13.79 11.102-13.79 20.306v2.376a2 2 0 002 2h39.75a2 2 0 002-2v-2.376c0-9.204-5.723-17.084-13.79-20.306a13.159 13.159 0 004.274-5.944h11.703a6.571 6.571 0 016.563 6.563v21.875a6.571 6.571 0 01-6.563 6.563h-18.526L96.094 64.992c-.43.52-1.07.82-1.75.82a2.284 2.284 0 01-2.281-2.281V52.688H74.45zm26.361-26.25c9.65 0 17.5 7.851 17.5 17.5h-35c0-9.649 7.851-17.5 17.5-17.5z" fill="#fff"/></svg>