<svg width="58" height="62" viewBox="0 0 58 62" fill="none" xmlns="http://www.w3.org/2000/svg">
<path d="M48.3399 52.2286C46.2571 54.3114 46.2571 57.6883 48.3399 59.7711C50.4227 61.8539 53.7996 61.8539 55.8824 59.7711C57.9652 57.6883 57.9652 54.3114 55.8824 52.2286C53.7996 50.1458 50.4227 50.1458 48.3399 52.2286ZM26.6112 30.4999L25.6254 30.6679L26.6112 30.4999ZM1.11115 4.99987C1.82787 5.69723 1.82772 5.69738 1.82758 5.69753C1.82755 5.69757 1.82741 5.6977 1.82734 5.69778C1.82719 5.69793 1.82707 5.69806 1.82697 5.69815C1.82679 5.69834 1.82672 5.69841 1.82677 5.69837C1.82686 5.69827 1.8274 5.69771 1.82841 5.6967C1.83041 5.69467 1.83423 5.69082 1.83983 5.68522C1.85104 5.67404 1.86937 5.65591 1.89459 5.63153C1.94504 5.58274 2.02291 5.50901 2.12627 5.41575C2.33321 5.22904 2.64093 4.96531 3.03393 4.6674C3.82374 4.06867 4.93797 3.34716 6.25446 2.82829L5.5211 0.967594C3.98523 1.57293 2.71114 2.40239 1.82573 3.07358C1.38111 3.41062 1.02949 3.71159 0.786496 3.93083C0.664883 4.04055 0.570139 4.13011 0.504214 4.19387C0.471242 4.22576 0.445448 4.25122 0.427076 4.26956C0.417888 4.27872 0.410554 4.28611 0.405102 4.29164C0.402376 4.2944 0.400121 4.29669 0.398339 4.29851C0.397449 4.29942 0.396676 4.30021 0.396023 4.30088C0.395697 4.30121 0.3954 4.30152 0.395133 4.30179C0.394999 4.30193 0.394821 4.30211 0.394755 4.30218C0.394585 4.30235 0.394421 4.30252 1.11115 4.99987ZM15.7516 4.83664C17.6548 6.66031 19.6021 9.608 21.3921 14.2173L23.2565 13.4933C21.4002 8.71341 19.316 5.48215 17.1353 3.39256L15.7516 4.83664ZM24.5384 25.0444C24.9204 26.7915 25.2837 28.6633 25.6254 30.6679L27.5969 30.3318C27.2505 28.2992 26.8814 26.3969 26.4923 24.6172L24.5384 25.0444ZM25.6254 30.6679C25.9718 32.7006 26.3409 34.6029 26.73 36.3825L28.6839 35.9553C28.3019 34.2083 27.9386 32.3364 27.5969 30.3318L25.6254 30.6679ZM29.9658 47.5064C31.8221 52.2863 33.9063 55.5176 36.087 57.6072L37.4707 56.1631C35.5675 54.3394 33.6202 51.3918 31.8302 46.7824L29.9658 47.5064ZM47.7012 60.0322C49.2371 59.4268 50.5112 58.5974 51.3966 57.9262C51.8412 57.5891 52.1928 57.2882 52.4358 57.0689C52.5574 56.9592 52.6522 56.8696 52.7181 56.8059C52.7511 56.774 52.7769 56.7485 52.7952 56.7302C52.8044 56.721 52.8117 56.7136 52.8172 56.7081C52.8199 56.7054 52.8222 56.7031 52.824 56.7012C52.8249 56.7003 52.8256 56.6995 52.8263 56.6989C52.8266 56.6985 52.8269 56.6982 52.8272 56.698C52.8273 56.6978 52.8275 56.6976 52.8275 56.6976C52.8277 56.6974 52.8279 56.6972 52.1112 55.9999C51.3944 55.3025 51.3946 55.3024 51.3947 55.3022C51.3948 55.3022 51.3949 55.302 51.395 55.302C51.3951 55.3018 51.3952 55.3017 51.3953 55.3016C51.3955 55.3014 51.3956 55.3013 51.3955 55.3014C51.3954 55.3015 51.3949 55.302 51.3939 55.3031C51.3919 55.3051 51.3881 55.3089 51.3825 55.3145C51.3713 55.3257 51.3529 55.3438 51.3277 55.3682C51.2773 55.417 51.1994 55.4907 51.096 55.584C50.8891 55.7707 50.5814 56.0344 50.1884 56.3324C49.3986 56.9311 48.2843 57.6526 46.9678 58.1715L47.7012 60.0322Z" fill="#75B72A"/>
</svg>
