<svg width="102" height="19" viewBox="0 0 102 19" fill="none" xmlns="http://www.w3.org/2000/svg">
<path d="M0.777995 5.99994C0.777995 8.94545 3.16581 11.3333 6.11133 11.3333C9.05685 11.3333 11.4447 8.94545 11.4447 5.99994C11.4447 3.05442 9.05685 0.666603 6.11133 0.666603C3.16581 0.666603 0.777995 3.05442 0.777995 5.99994ZM6.11133 5.99994C5.51729 6.80437 5.51734 6.80441 5.5174 6.80445C5.51743 6.80447 5.51749 6.80452 5.51755 6.80456C5.51765 6.80464 5.51778 6.80474 5.51793 6.80485C5.51823 6.80507 5.51861 6.80535 5.51907 6.80569C5.52 6.80637 5.52125 6.80729 5.52284 6.80846C5.526 6.81079 5.53048 6.81407 5.53626 6.81831C5.54781 6.82677 5.56456 6.839 5.5864 6.85485C5.63008 6.88656 5.69413 6.93279 5.77772 6.99238C5.94488 7.11158 6.19023 7.2843 6.50709 7.50148C7.14072 7.93577 8.06087 8.54821 9.21407 9.26598L10.2709 7.56802C9.14555 6.86757 8.25012 6.27147 7.6378 5.85179C7.3317 5.64198 7.09649 5.47636 6.93883 5.36395C6.86001 5.30774 6.80059 5.26485 6.76139 5.2364C6.7418 5.22217 6.72726 5.21156 6.71789 5.20469C6.71321 5.20126 6.70981 5.19877 6.70772 5.19723C6.70667 5.19646 6.70595 5.19593 6.70556 5.19564C6.70537 5.1955 6.70525 5.19542 6.70522 5.19539C6.7052 5.19538 6.70521 5.19538 6.70523 5.1954C6.70525 5.19541 6.70528 5.19544 6.70529 5.19544C6.70533 5.19547 6.70537 5.1955 6.11133 5.99994ZM16.9918 13.5492C19.5081 14.759 22.3083 15.9334 25.2454 16.8696L25.8528 14.9641C23.0233 14.0622 20.3107 12.9258 17.8585 11.7467L16.9918 13.5492ZM34.0116 18.7343C37.0594 19.0202 40.1272 18.8804 43.0584 18.0975L42.5423 16.1653C39.8888 16.8739 37.0663 17.012 34.1983 16.743L34.0116 18.7343ZM51.109 13.7523C52.1964 12.7752 53.2204 11.6419 54.1696 10.3387L52.553 9.16117C51.6824 10.3565 50.7514 11.3849 49.7723 12.2647L51.109 13.7523ZM54.1696 10.3387C55.0403 9.14341 55.9713 8.11501 56.9504 7.23522L55.6136 5.74758C54.5262 6.7247 53.5023 7.85797 52.553 9.16117L54.1696 10.3387ZM64.1803 3.33461C66.8338 2.62594 69.6564 2.48783 72.5243 2.75683L72.7111 0.765574C69.6633 0.479705 66.5954 0.619509 63.6643 1.40234L64.1803 3.33461ZM80.8698 4.53577C83.6994 5.4377 86.4119 6.57409 88.8642 7.75317L89.7308 5.95069C87.2146 4.74086 84.4143 3.56645 81.4772 2.63023L80.8698 4.53577ZM96.4517 11.9319C97.5771 12.6323 98.4725 13.2284 99.0849 13.6481C99.391 13.8579 99.6262 14.0235 99.7838 14.1359C99.8626 14.1921 99.9221 14.235 99.9613 14.2635C99.9809 14.2777 99.9954 14.2883 100.005 14.2952C100.009 14.2986 100.013 14.3011 100.015 14.3026C100.016 14.3034 100.017 14.3039 100.017 14.3042C100.017 14.3044 100.017 14.3045 100.017 14.3045C100.017 14.3045 100.017 14.3045 100.017 14.3045C100.017 14.3045 100.017 14.3044 100.017 14.3044C100.017 14.3044 100.017 14.3044 100.611 13.4999C101.205 12.6955 101.205 12.6955 101.205 12.6954C101.205 12.6954 101.205 12.6953 101.205 12.6953C101.205 12.6952 101.205 12.6951 101.205 12.695C101.204 12.6948 101.204 12.6945 101.204 12.6942C101.203 12.6935 101.201 12.6926 101.2 12.6914C101.197 12.6891 101.192 12.6858 101.186 12.6816C101.175 12.6731 101.158 12.6609 101.136 12.645C101.093 12.6133 101.029 12.5671 100.945 12.5075C100.778 12.3883 100.532 12.2156 100.216 11.9984C99.5819 11.5641 98.6618 10.9517 97.5086 10.2339L96.4517 11.9319Z" fill="#75B72A"/>
</svg>
