<svg width="1450" height="298" viewBox="0 0 1450 298" fill="none" xmlns="http://www.w3.org/2000/svg">
<path d="M1402.28 5.5C1402.28 8.44552 1404.67 10.8333 1407.61 10.8333C1410.56 10.8333 1412.94 8.44552 1412.94 5.5C1412.94 2.55448 1410.56 0.166667 1407.61 0.166667C1404.67 0.166667 1402.28 2.55448 1402.28 5.5ZM717.111 173L717.064 173.999L717.111 173ZM49.278 292C49.278 294.946 51.6658 297.333 54.6113 297.333C57.5568 297.333 59.9446 294.946 59.9446 292C59.9446 289.054 57.5568 286.667 54.6113 286.667C51.6658 286.667 49.278 289.054 49.278 292ZM49.7892 292.054C49.2376 292.08 48.8114 292.548 48.8373 293.1C48.8633 293.652 49.3316 294.078 49.8832 294.052L49.7892 292.054ZM39.7023 292.646C40.2341 292.795 40.7861 292.485 40.9353 291.953C41.0845 291.421 40.7744 290.869 40.2426 290.72L39.7023 292.646ZM31.1407 287.254C30.642 287.017 30.0453 287.229 29.8078 287.727C29.5704 288.226 29.7821 288.823 30.2807 289.06L31.1407 287.254ZM21.4791 284.055C21.9383 284.361 22.5593 284.238 22.8661 283.779C23.1729 283.319 23.0493 282.698 22.5901 282.392L21.4791 284.055ZM14.8781 276.353C14.4718 275.979 13.8392 276.005 13.4651 276.411C13.0911 276.818 13.1173 277.45 13.5237 277.824L14.8781 276.353ZM6.74314 270.297C7.0685 270.743 7.69403 270.841 8.1403 270.516C8.58658 270.191 8.6846 269.565 8.35924 269.119L6.74314 270.297ZM3.73332 260.655C3.5421 260.137 2.96707 259.872 2.44894 260.063C1.93082 260.255 1.66581 260.83 1.85702 261.348L3.73332 260.655ZM0.0820889 251.255C0.0724322 251.807 0.512251 252.262 1.06445 252.272C1.61665 252.282 2.07213 251.842 2.08178 251.29L0.0820889 251.255ZM4.073 242.042C4.28608 241.533 4.04576 240.947 3.53624 240.734C3.02671 240.521 2.44092 240.761 2.22784 241.271L4.073 242.042ZM7.47492 232.634C7.12858 233.064 7.19656 233.694 7.62676 234.04C8.05696 234.386 8.68646 234.318 9.0328 233.888L7.47492 232.634ZM15.8373 226.979C16.2575 226.62 16.3074 225.989 15.9489 225.569C15.5904 225.149 14.9592 225.099 14.5391 225.457L15.8373 226.979ZM22.6256 219.441C22.1638 219.744 22.0351 220.364 22.3381 220.825C22.6411 221.287 23.2611 221.416 23.7228 221.113L22.6256 219.441ZM32.3994 215.992C32.8866 215.732 33.0706 215.126 32.8105 214.639C32.5503 214.152 31.9445 213.968 31.4573 214.228L32.3994 215.992ZM40.1538 209.948C39.6511 210.177 39.429 210.77 39.6577 211.273C39.8864 211.776 40.4793 211.998 40.982 211.769L40.1538 209.948ZM50.1488 207.89C50.6626 207.688 50.9148 207.107 50.7122 206.593C50.5096 206.08 49.9289 205.827 49.4151 206.03L50.1488 207.89ZM58.7405 202.577C58.2189 202.759 57.9432 203.329 58.1248 203.85C58.3063 204.372 58.8763 204.648 59.3979 204.466L58.7405 202.577ZM68.8134 201.371C69.3408 201.207 69.6355 200.646 69.4715 200.119C69.3076 199.592 68.7472 199.297 68.2198 199.461L68.8134 201.371ZM77.7009 196.663C77.1692 196.812 76.8589 197.364 77.0081 197.895C77.1572 198.427 77.7091 198.737 78.2409 198.588L77.7009 196.663ZM88.0318 195.976C88.567 195.84 88.8908 195.296 88.7548 194.76C88.6188 194.225 88.0747 193.901 87.5394 194.037L88.0318 195.976ZM96.9238 191.757C96.3859 191.882 96.0512 192.419 96.1763 192.957C96.3014 193.495 96.8389 193.83 97.3768 193.705L96.9238 191.757ZM107.309 191.496C107.849 191.381 108.194 190.85 108.079 190.309C107.964 189.769 107.433 189.424 106.893 189.539L107.309 191.496ZM116.527 187.572C115.985 187.678 115.632 188.203 115.738 188.745C115.844 189.287 116.37 189.64 116.912 189.534L116.527 187.572ZM126.507 187.726C127.05 187.627 127.411 187.107 127.313 186.563C127.214 186.02 126.694 185.659 126.15 185.758L126.507 187.726ZM136.244 184C135.7 184.091 135.332 184.607 135.423 185.151C135.514 185.696 136.03 186.064 136.574 185.973L136.244 184ZM146.262 184.411C146.808 184.327 147.182 183.816 147.097 183.27C147.013 182.724 146.501 182.35 145.956 182.435L146.262 184.411ZM155.585 180.994C155.038 181.073 154.659 181.58 154.738 182.127C154.817 182.673 155.324 183.052 155.87 182.973L155.585 180.994ZM165.86 181.584C166.408 181.511 166.792 181.008 166.719 180.46C166.645 179.913 166.142 179.529 165.595 179.602L165.86 181.584ZM175.733 178.293C175.185 178.362 174.796 178.861 174.864 179.409C174.932 179.957 175.432 180.346 175.98 180.278L175.733 178.293ZM185.464 179.139C186.013 179.075 186.406 178.579 186.342 178.03C186.279 177.482 185.782 177.089 185.234 177.152L185.464 179.139ZM195.046 176.054C194.497 176.113 194.099 176.606 194.159 177.155C194.218 177.704 194.711 178.101 195.26 178.042L195.046 176.054ZM205.373 176.989C205.922 176.934 206.323 176.444 206.268 175.894C206.213 175.345 205.722 174.944 205.173 174.999L205.373 176.989ZM215.246 174.024C214.696 174.076 214.291 174.563 214.343 175.113C214.394 175.663 214.881 176.067 215.431 176.016L215.246 174.024ZM224.974 175.156C225.524 175.109 225.932 174.624 225.884 174.074C225.836 173.523 225.351 173.116 224.801 173.164L224.974 175.156ZM234.616 172.341C234.066 172.386 233.655 172.868 233.7 173.419C233.744 173.969 234.227 174.379 234.777 174.335L234.616 172.341ZM244.843 173.552C245.394 173.51 245.807 173.03 245.766 172.48C245.724 171.929 245.244 171.516 244.694 171.557L244.843 173.552ZM255.037 170.812C254.486 170.851 254.07 171.328 254.108 171.879C254.146 172.43 254.624 172.846 255.175 172.808L255.037 170.812ZM264.713 172.172C265.264 172.137 265.682 171.661 265.647 171.11C265.611 170.559 265.136 170.141 264.585 170.176L264.713 172.172ZM274.293 169.577C273.742 169.61 273.321 170.083 273.354 170.634C273.387 171.186 273.86 171.606 274.411 171.574L274.293 169.577ZM284.33 171.009C284.881 170.978 285.304 170.507 285.274 169.956C285.244 169.404 284.772 168.981 284.221 169.012L284.33 171.009ZM294.371 168.48C293.819 168.508 293.394 168.978 293.422 169.529C293.45 170.081 293.919 170.506 294.471 170.478L294.371 168.48ZM304.769 169.985C305.32 169.96 305.747 169.493 305.722 168.941C305.697 168.389 305.229 167.962 304.677 167.987L304.769 169.985ZM314.214 167.571C313.662 167.594 313.233 168.06 313.256 168.612C313.279 169.164 313.745 169.592 314.297 169.569L314.214 167.571ZM324.011 169.183C324.563 169.162 324.993 168.697 324.972 168.145C324.951 167.593 324.487 167.163 323.935 167.184L324.011 169.183ZM333.843 166.827C333.291 166.846 332.859 167.308 332.878 167.86C332.897 168.412 333.359 168.845 333.911 168.826L333.843 166.827ZM344.001 168.499C344.553 168.482 344.987 168.021 344.97 167.469C344.953 166.917 344.492 166.483 343.94 166.5L344.001 168.499ZM354.226 166.204C353.674 166.219 353.239 166.679 353.253 167.231C353.268 167.783 353.728 168.219 354.28 168.204L354.226 166.204ZM364.109 167.954C364.662 167.941 365.099 167.483 365.086 166.931C365.072 166.379 364.614 165.942 364.062 165.955L364.109 167.954ZM373.706 165.741C373.154 165.753 372.715 166.21 372.727 166.762C372.738 167.314 373.195 167.752 373.747 167.741L373.706 165.741ZM383.544 167.554C384.096 167.544 384.536 167.088 384.526 166.536C384.517 165.984 384.061 165.544 383.509 165.554L383.544 167.554ZM393.473 165.393C392.921 165.402 392.48 165.856 392.488 166.408C392.496 166.96 392.95 167.401 393.502 167.393L393.473 165.393ZM403.622 167.26C404.174 167.253 404.617 166.801 404.61 166.248C404.604 165.696 404.151 165.254 403.599 165.26L403.622 167.26ZM413.888 165.154C413.335 165.159 412.892 165.611 412.897 166.163C412.902 166.715 413.353 167.159 413.905 167.154L413.888 165.154ZM423.731 167.08C424.283 167.077 424.728 166.626 424.725 166.074C424.721 165.522 424.271 165.077 423.719 165.08L423.731 167.08ZM433.364 165.032C432.812 165.034 432.366 165.484 432.368 166.036C432.37 166.588 432.819 167.034 433.372 167.032L433.364 165.032ZM443.15 167.008C443.702 167.007 444.15 166.559 444.149 166.007C444.148 165.454 443.7 165.007 443.148 165.008L443.15 167.008ZM453.07 165.007C452.517 165.007 452.069 165.454 452.068 166.006C452.068 166.559 452.515 167.007 453.067 167.007L453.07 165.007ZM463.124 167.031C463.676 167.033 464.126 166.587 464.128 166.035C464.13 165.482 463.684 165.033 463.131 165.031L463.124 167.031ZM473.333 165.079C472.781 165.076 472.331 165.521 472.328 166.073C472.324 166.626 472.769 167.076 473.322 167.079L473.333 165.079ZM483.594 167.152C484.146 167.156 484.597 166.712 484.602 166.16C484.606 165.607 484.162 165.156 483.61 165.152L483.594 167.152ZM493.186 165.24C492.633 165.234 492.181 165.677 492.176 166.23C492.17 166.782 492.613 167.234 493.165 167.24L493.186 165.24ZM502.856 167.349C503.409 167.356 503.862 166.914 503.868 166.361C503.875 165.809 503.433 165.356 502.881 165.349L502.856 167.349ZM512.696 165.48C512.144 165.472 511.69 165.913 511.682 166.465C511.674 167.018 512.115 167.472 512.668 167.48L512.696 165.48ZM522.6 167.632C523.152 167.641 523.607 167.2 523.616 166.648C523.625 166.096 523.185 165.641 522.632 165.632L522.6 167.632ZM532.69 165.806C532.138 165.795 531.682 166.235 531.672 166.787C531.662 167.339 532.101 167.795 532.654 167.805L532.69 165.806ZM542.83 168.001C543.382 168.012 543.838 167.573 543.85 167.021C543.861 166.469 543.422 166.012 542.87 166.001L542.83 168.001ZM553.173 166.219C552.621 166.207 552.163 166.644 552.151 167.196C552.139 167.749 552.577 168.206 553.129 168.218L553.173 166.219ZM562.796 168.44C563.348 168.453 563.807 168.016 563.82 167.464C563.833 166.912 563.396 166.454 562.844 166.441L562.796 168.44ZM572.511 166.679C571.959 166.665 571.5 167.101 571.486 167.653C571.472 168.205 571.908 168.664 572.46 168.679L572.511 166.679ZM582.229 168.936C582.781 168.951 583.24 168.516 583.255 167.964C583.27 167.411 582.835 166.952 582.283 166.937L582.229 168.936ZM592.161 167.213C591.609 167.198 591.148 167.632 591.132 168.184C591.116 168.736 591.551 169.197 592.103 169.213L592.161 167.213ZM602.084 169.509C602.636 169.526 603.097 169.092 603.114 168.54C603.13 167.988 602.697 167.526 602.145 167.51L602.084 169.509ZM612.235 167.825C611.683 167.808 611.221 168.241 611.203 168.793C611.186 169.345 611.619 169.807 612.171 169.824L612.235 167.825ZM622.365 170.16C622.917 170.178 623.38 169.746 623.398 169.194C623.417 168.642 622.985 168.179 622.433 168.161L622.365 170.16ZM632.718 168.516C632.166 168.496 631.703 168.928 631.684 169.48C631.664 170.032 632.096 170.495 632.648 170.514L632.718 168.516ZM642.23 170.859C642.782 170.879 643.246 170.448 643.266 169.896C643.286 169.344 642.855 168.881 642.303 168.86L642.23 170.859ZM651.981 169.222C651.429 169.201 650.964 169.632 650.943 170.184C650.922 170.735 651.353 171.2 651.904 171.221L651.981 169.222ZM661.671 171.6C662.223 171.622 662.688 171.192 662.71 170.64C662.732 170.088 662.302 169.623 661.75 169.602L661.671 171.6ZM671.613 169.998C671.061 169.976 670.596 170.405 670.573 170.957C670.551 171.508 670.98 171.974 671.531 171.997L671.613 169.998ZM681.485 172.411C682.037 172.434 682.503 172.005 682.526 171.454C682.55 170.902 682.121 170.436 681.569 170.412L681.485 172.411ZM691.619 170.844C691.068 170.82 690.601 171.248 690.577 171.799C690.553 172.351 690.98 172.818 691.532 172.842L691.619 170.844ZM701.674 173.291C702.225 173.316 702.693 172.889 702.718 172.337C702.742 171.786 702.315 171.318 701.764 171.293L701.674 173.291ZM712.003 171.761C711.451 171.735 710.983 172.162 710.957 172.713C710.932 173.265 711.358 173.733 711.91 173.759L712.003 171.761ZM722.265 174.24C722.817 174.265 723.285 173.838 723.31 173.287C723.335 172.735 722.908 172.267 722.357 172.242L722.265 174.24ZM732.685 172.701C732.133 172.677 731.667 173.105 731.643 173.657C731.619 174.209 732.047 174.675 732.599 174.699L732.685 172.701ZM742.841 175.129C743.393 175.151 743.859 174.722 743.881 174.17C743.904 173.619 743.474 173.153 742.923 173.131L742.841 175.129ZM753.07 173.53C752.518 173.509 752.053 173.94 752.032 174.492C752.011 175.043 752.442 175.508 752.994 175.529L753.07 173.53ZM763.056 175.9C763.608 175.919 764.071 175.488 764.091 174.936C764.11 174.384 763.679 173.92 763.127 173.901L763.056 175.9ZM773.094 174.242C772.542 174.224 772.08 174.657 772.062 175.209C772.044 175.761 772.476 176.223 773.028 176.241L773.094 174.242ZM782.911 176.554C783.463 176.571 783.924 176.137 783.941 175.585C783.958 175.033 783.524 174.572 782.972 174.555L782.911 176.554ZM793.198 174.851C792.646 174.836 792.186 175.271 792.171 175.823C792.156 176.375 792.591 176.835 793.143 176.85L793.198 174.851ZM803.464 177.12C804.016 177.134 804.475 176.698 804.489 176.146C804.502 175.593 804.066 175.135 803.514 175.121L803.464 177.12ZM813.729 175.359C813.177 175.347 812.719 175.785 812.707 176.337C812.695 176.889 813.133 177.347 813.685 177.359L813.729 175.359ZM823.807 177.566C824.359 177.576 824.815 177.137 824.825 176.585C824.836 176.033 824.397 175.577 823.844 175.566L823.807 177.566ZM833.861 175.742C833.309 175.733 832.854 176.173 832.845 176.726C832.836 177.278 833.276 177.733 833.829 177.742L833.861 175.742ZM843.752 177.887C844.304 177.894 844.758 177.452 844.765 176.9C844.772 176.348 844.331 175.894 843.778 175.887L843.752 177.887ZM853.798 176.003C853.245 175.998 852.793 176.441 852.788 176.993C852.782 177.545 853.225 177.998 853.777 178.003L853.798 176.003ZM864.144 178.092C864.696 178.095 865.147 177.651 865.15 177.098C865.154 176.546 864.71 176.095 864.157 176.092L864.144 178.092ZM874.406 176.146C873.854 176.144 873.405 176.59 873.403 177.142C873.401 177.695 873.847 178.144 874.399 178.146L874.406 176.146ZM884.544 178.167C885.096 178.167 885.544 177.719 885.544 177.167C885.544 176.615 885.097 176.167 884.545 176.167L884.544 178.167ZM894.573 176.154C894.021 176.156 893.574 176.605 893.576 177.157C893.577 177.709 894.026 178.156 894.579 178.154L894.573 176.154ZM904.504 178.109C905.057 178.106 905.502 177.655 905.498 177.103C905.495 176.551 905.044 176.106 904.492 176.109L904.504 178.109ZM914.513 176.03C913.961 176.035 913.518 176.487 913.523 177.039C913.528 177.591 913.98 178.035 914.533 178.029L914.513 176.03ZM924.9 177.91C925.452 177.903 925.894 177.449 925.886 176.897C925.879 176.345 925.425 175.903 924.873 175.911L924.9 177.91ZM935.11 175.756C934.558 175.765 934.117 176.22 934.127 176.772C934.136 177.325 934.592 177.765 935.144 177.755L935.11 175.756ZM945.265 177.564C945.817 177.553 946.256 177.096 946.244 176.544C946.233 175.992 945.776 175.553 945.224 175.565L945.265 177.564ZM955.216 175.339C954.664 175.352 954.227 175.811 954.24 176.363C954.254 176.915 954.713 177.352 955.265 177.338L955.216 175.339ZM965.143 177.077C965.695 177.062 966.13 176.602 966.114 176.05C966.099 175.497 965.638 175.063 965.086 175.078L965.143 177.077ZM975.322 174.768C974.77 174.786 974.337 175.247 974.355 175.799C974.373 176.351 974.835 176.784 975.387 176.767L975.322 174.768ZM985.697 176.411C986.249 176.391 986.68 175.927 986.66 175.375C986.64 174.823 986.176 174.392 985.624 174.413L985.697 176.411ZM995.788 174.019C995.237 174.042 994.807 174.507 994.83 175.059C994.853 175.611 995.318 176.04 995.87 176.018L995.788 174.019ZM1005.91 175.586C1006.46 175.561 1006.89 175.094 1006.86 174.542C1006.84 173.991 1006.37 173.563 1005.82 173.588L1005.91 175.586ZM1015.71 173.12C1015.16 173.148 1014.73 173.617 1014.76 174.169C1014.79 174.72 1015.26 175.145 1015.81 175.118L1015.71 173.12ZM1025.91 174.595C1026.46 174.565 1026.88 174.094 1026.85 173.542C1026.82 172.991 1026.35 172.568 1025.8 172.598L1025.91 174.595ZM1036.12 172.015C1035.57 172.048 1035.15 172.521 1035.18 173.072C1035.22 173.623 1035.69 174.044 1036.24 174.012L1036.12 172.015ZM1046.42 173.387C1046.97 173.352 1047.39 172.877 1047.35 172.326C1047.32 171.775 1046.84 171.356 1046.29 171.392L1046.42 173.387ZM1056.3 170.728C1055.75 170.766 1055.34 171.243 1055.38 171.794C1055.41 172.345 1055.89 172.761 1056.44 172.723L1056.3 170.728ZM1066.31 172.02C1066.87 171.979 1067.28 171.5 1067.24 170.949C1067.2 170.398 1066.72 169.985 1066.17 170.025L1066.31 172.02ZM1076.31 169.249C1075.76 169.293 1075.35 169.775 1075.4 170.325C1075.44 170.876 1075.92 171.287 1076.47 171.243L1076.31 169.249ZM1086.76 170.4C1087.31 170.354 1087.72 169.87 1087.67 169.319C1087.63 168.769 1087.14 168.361 1086.59 168.407L1086.76 170.4ZM1096.7 167.522C1096.15 167.572 1095.74 168.058 1095.79 168.608C1095.84 169.158 1096.33 169.564 1096.88 169.514L1096.7 167.522ZM1106.82 168.586C1107.37 168.533 1107.78 168.044 1107.72 167.495C1107.67 166.945 1107.18 166.542 1106.63 166.595L1106.82 168.586ZM1116.44 165.622C1115.89 165.678 1115.49 166.169 1115.55 166.718C1115.61 167.268 1116.1 167.668 1116.65 167.611L1116.44 165.622ZM1127.01 166.519C1127.56 166.46 1127.95 165.966 1127.89 165.417C1127.83 164.868 1127.34 164.471 1126.79 164.531L1127.01 166.519ZM1136.94 163.394C1136.39 163.458 1136 163.954 1136.06 164.502C1136.13 165.051 1136.62 165.444 1137.17 165.381L1136.94 163.394ZM1147.14 164.198C1147.69 164.131 1148.08 163.632 1148.01 163.084C1147.95 162.536 1147.45 162.146 1146.9 162.213L1147.14 164.198ZM1156.67 160.987C1156.12 161.058 1155.73 161.559 1155.8 162.107C1155.87 162.655 1156.37 163.042 1156.92 162.971L1156.67 160.987ZM1167.18 161.609C1167.73 161.535 1168.11 161.031 1168.04 160.483C1167.97 159.936 1167.46 159.553 1166.91 159.628L1167.18 161.609ZM1177.05 158.205C1176.5 158.284 1176.12 158.791 1176.2 159.338C1176.28 159.884 1176.79 160.263 1177.34 160.185L1177.05 158.205ZM1187.27 158.712C1187.81 158.629 1188.19 158.119 1188.11 157.573C1188.02 157.027 1187.51 156.652 1186.97 156.735L1187.27 158.712ZM1196.66 155.219C1196.12 155.307 1195.75 155.82 1195.83 156.365C1195.92 156.911 1196.44 157.282 1196.98 157.194L1196.66 155.219ZM1207.27 155.497C1207.81 155.405 1208.18 154.889 1208.09 154.344C1208 153.8 1207.48 153.433 1206.94 153.525L1207.27 155.497ZM1216.97 151.778C1216.43 151.876 1216.06 152.395 1216.16 152.939C1216.26 153.482 1216.78 153.844 1217.32 153.747L1216.97 151.778ZM1227.12 151.948C1227.66 151.846 1228.02 151.323 1227.92 150.78C1227.82 150.237 1227.29 149.88 1226.75 149.982L1227.12 151.948ZM1236.63 148.071C1236.09 148.178 1235.74 148.705 1235.85 149.246C1235.95 149.788 1236.48 150.14 1237.02 150.032L1236.63 148.071ZM1247.14 147.966C1247.68 147.852 1248.03 147.322 1247.92 146.782C1247.8 146.241 1247.27 145.895 1246.73 146.008L1247.14 147.966ZM1256.54 143.895C1256 144.014 1255.66 144.548 1255.78 145.087C1255.9 145.627 1256.44 145.967 1256.98 145.848L1256.54 143.895ZM1266.64 143.653C1267.18 143.527 1267.51 142.99 1267.39 142.452C1267.26 141.914 1266.72 141.58 1266.19 141.705L1266.64 143.653ZM1276.28 139.285C1275.74 139.417 1275.41 139.959 1275.55 140.495C1275.68 141.031 1276.22 141.359 1276.76 141.226L1276.28 139.285ZM1286.54 138.747C1287.07 138.607 1287.39 138.061 1287.25 137.527C1287.12 136.992 1286.57 136.672 1286.03 136.811L1286.54 138.747ZM1295.59 134.254C1295.05 134.4 1294.74 134.951 1294.89 135.483C1295.03 136.016 1295.58 136.328 1296.12 136.182L1295.59 134.254ZM1306.12 133.347C1306.65 133.192 1306.95 132.637 1306.8 132.106C1306.64 131.576 1306.09 131.272 1305.56 131.427L1306.12 133.347ZM1315.14 128.547C1314.62 128.71 1314.32 129.27 1314.48 129.798C1314.65 130.326 1315.21 130.621 1315.73 130.458L1315.14 128.547ZM1325.35 127.394C1325.87 127.221 1326.16 126.656 1325.99 126.132C1325.82 125.607 1325.25 125.321 1324.73 125.493L1325.35 127.394ZM1334.42 122.209C1333.9 122.391 1333.62 122.961 1333.81 123.483C1333.99 124.004 1334.56 124.279 1335.08 124.096L1334.42 122.209ZM1344.36 120.749C1344.88 120.557 1345.14 119.981 1344.95 119.463C1344.75 118.946 1344.18 118.682 1343.66 118.875L1344.36 120.749ZM1353.33 115.15C1352.82 115.354 1352.57 115.936 1352.77 116.449C1352.98 116.962 1353.56 117.212 1354.07 117.007L1353.33 115.15ZM1363.3 113.196C1363.81 112.979 1364.05 112.391 1363.83 111.883C1363.61 111.375 1363.02 111.14 1362.52 111.357L1363.3 113.196ZM1371.86 107.21C1371.36 107.441 1371.14 108.035 1371.37 108.537C1371.6 109.038 1372.2 109.257 1372.7 109.026L1371.86 107.21ZM1381.74 104.689C1382.24 104.443 1382.44 103.842 1382.19 103.348C1381.94 102.854 1381.34 102.653 1380.85 102.9L1381.74 104.689ZM1389.9 98.1843C1389.41 98.4484 1389.24 99.0557 1389.5 99.5407C1389.76 100.026 1390.37 100.205 1390.86 99.9408L1389.9 98.1843ZM1399.5 95.0172C1399.97 94.734 1400.12 94.1201 1399.84 93.6459C1399.56 93.1717 1398.94 93.0169 1398.47 93.3001L1399.5 95.0172ZM1407.17 87.8249C1406.71 88.1307 1406.58 88.7515 1406.89 89.2114C1407.19 89.6712 1407.81 89.7961 1408.27 89.4903L1407.17 87.8249ZM1416.54 83.6601C1416.98 83.3288 1417.07 82.7021 1416.74 82.2602C1416.41 81.8182 1415.78 81.7285 1415.34 82.0598L1416.54 83.6601ZM1423.07 75.8636C1422.65 76.2242 1422.6 76.8556 1422.96 77.2739C1423.32 77.6923 1423.95 77.7391 1424.37 77.3785L1423.07 75.8636ZM1431.9 70.3138C1432.29 69.9179 1432.28 69.2848 1431.88 68.8997C1431.49 68.5147 1430.85 68.5235 1430.47 68.9195L1431.9 70.3138ZM1437.06 61.3623C1436.72 61.7995 1436.8 62.4274 1437.24 62.7649C1437.68 63.1023 1438.3 63.0215 1438.64 62.5843L1437.06 61.3623ZM1444.29 54.0383C1444.56 53.5542 1444.38 52.9463 1443.89 52.6804C1443.41 52.4145 1442.8 52.5913 1442.54 53.0754L1444.29 54.0383ZM1446.35 44.0426C1446.2 44.5729 1446.5 45.1279 1447.03 45.2823C1447.56 45.4367 1448.12 45.132 1448.27 44.6017L1446.35 44.0426ZM1449.66 34.2548C1449.65 33.7028 1449.19 33.2698 1448.63 33.2876C1448.08 33.3055 1447.65 33.7674 1447.67 34.3194L1449.66 34.2548ZM1445.51 24.9248C1445.74 25.4275 1446.33 25.6494 1446.83 25.4205C1447.33 25.1916 1447.56 24.5986 1447.33 24.0959L1445.51 24.9248ZM1441.24 15.6432C1440.84 15.2623 1440.21 15.2779 1439.83 15.6779C1439.45 16.0779 1439.46 16.7109 1439.86 17.0917L1441.24 15.6432ZM1431.76 11.516C1432.26 11.7613 1432.86 11.559 1433.1 11.0642C1433.35 10.5694 1433.14 9.9694 1432.65 9.72412L1431.76 11.516ZM1422.98 6.2487C1422.44 6.11718 1421.9 6.44539 1421.77 6.98178C1421.64 7.51818 1421.97 8.05963 1422.5 8.19116L1422.98 6.2487ZM1412.7 6.68029C1413.25 6.72012 1413.73 6.30587 1413.77 5.75502C1413.81 5.20417 1413.39 4.72533 1412.84 4.6855L1412.7 6.68029ZM54.1849 291.095C53.0151 291.647 51.5365 291.972 49.7892 292.054L49.8832 294.052C51.8098 293.961 53.5644 293.599 55.0377 292.905L54.1849 291.095ZM40.2426 290.72C37.333 289.904 34.2482 288.734 31.1407 287.254L30.2807 289.06C33.4801 290.584 36.6717 291.796 39.7023 292.646L40.2426 290.72ZM22.5901 282.392C19.8785 280.58 17.2712 278.555 14.8781 276.353L13.5237 277.824C15.9989 280.103 18.6887 282.19 21.4791 284.055L22.5901 282.392ZM8.35924 269.119C6.40275 266.435 4.82026 263.6 3.73332 260.655L1.85702 261.348C3.01744 264.492 4.69552 267.489 6.74314 270.297L8.35924 269.119ZM2.08178 251.29C2.13438 248.282 2.75687 245.189 4.073 242.042L2.22784 241.271C0.816079 244.646 0.139206 247.989 0.0820889 251.255L2.08178 251.29ZM9.0328 233.888C10.8772 231.597 13.1297 229.289 15.8373 226.979L14.5391 225.457C11.7485 227.839 9.40641 230.235 7.47492 232.634L9.0328 233.888ZM23.7228 221.113C26.3368 219.398 29.2229 217.689 32.3994 215.992L31.4573 214.228C28.2328 215.95 25.2944 217.689 22.6256 219.441L23.7228 221.113ZM40.982 211.769C43.8493 210.464 46.9021 209.171 50.1488 207.89L49.4151 206.03C46.1388 207.322 43.0544 208.629 40.1538 209.948L40.982 211.769ZM59.3979 204.466C62.3955 203.423 65.5324 202.391 68.8134 201.371L68.2198 199.461C64.9185 200.487 61.7603 201.526 58.7405 202.577L59.3979 204.466ZM78.2409 198.588C81.3868 197.706 84.6493 196.835 88.0318 195.976L87.5394 194.037C84.1417 194.901 80.8634 195.776 77.7009 196.663L78.2409 198.588ZM97.3768 193.705C100.589 192.958 103.899 192.221 107.309 191.496L106.893 189.539C103.471 190.268 100.149 191.007 96.9238 191.757L97.3768 193.705ZM116.912 189.534C120.032 188.922 123.23 188.319 126.507 187.726L126.15 185.758C122.865 186.353 119.657 186.958 116.527 187.572L116.912 189.534ZM136.574 185.973C139.735 185.444 142.964 184.923 146.262 184.411L145.956 182.435C142.65 182.948 139.413 183.47 136.244 184L136.574 185.973ZM155.87 182.973C159.136 182.502 162.466 182.039 165.86 181.584L165.595 179.602C162.194 180.058 158.858 180.522 155.585 180.994L155.87 182.973ZM175.98 180.278C179.09 179.891 182.251 179.512 185.464 179.139L185.234 177.152C182.015 177.526 178.849 177.906 175.733 178.293L175.98 180.278ZM195.26 178.042C198.578 177.684 201.949 177.333 205.373 176.989L205.173 174.999C201.744 175.343 198.369 175.695 195.046 176.054L195.26 178.042ZM215.431 176.016C218.569 175.723 221.75 175.437 224.974 175.156L224.801 173.164C221.573 173.445 218.388 173.731 215.246 174.024L215.431 176.016ZM234.777 174.335C238.088 174.067 241.444 173.806 244.843 173.552L244.694 171.557C241.29 171.812 237.931 172.073 234.616 172.341L234.777 174.335ZM255.175 172.808C258.318 172.59 261.497 172.378 264.713 172.172L264.585 170.176C261.366 170.383 258.183 170.595 255.037 170.812L255.175 172.808ZM274.411 171.574C277.681 171.38 280.987 171.191 284.33 171.009L284.221 169.012C280.875 169.194 277.565 169.383 274.293 169.577L274.411 171.574ZM294.471 170.478C297.866 170.308 301.299 170.144 304.769 169.985L304.677 167.987C301.205 168.146 297.769 168.31 294.371 168.48L294.471 170.478ZM314.297 169.569C317.504 169.435 320.742 169.306 324.011 169.183L323.935 167.184C320.663 167.308 317.423 167.437 314.214 167.571L314.297 169.569ZM333.911 168.826C337.243 168.712 340.606 168.603 344.001 168.499L343.94 166.5C340.542 166.604 337.177 166.713 333.843 166.827L333.911 168.826ZM354.28 168.204C357.528 168.116 360.805 168.033 364.109 167.954L364.062 165.955C360.755 166.034 357.477 166.117 354.226 166.204L354.28 168.204ZM373.747 167.741C376.986 167.674 380.252 167.612 383.544 167.554L383.509 165.554C380.215 165.612 376.947 165.674 373.706 165.741L373.747 167.741ZM393.502 167.393C396.848 167.344 400.222 167.3 403.622 167.26L403.599 165.26C400.196 165.3 396.821 165.344 393.473 165.393L393.502 167.393ZM413.905 167.154C417.156 167.125 420.432 167.101 423.731 167.08L423.719 165.08C420.417 165.101 417.14 165.125 413.888 165.154L413.905 167.154ZM433.372 167.032C436.608 167.02 439.868 167.012 443.15 167.008L443.148 165.008C439.863 165.012 436.602 165.02 433.364 165.032L433.372 167.032ZM453.067 167.007C456.396 167.011 459.749 167.019 463.124 167.031L463.131 165.031C459.754 165.019 456.4 165.011 453.07 165.007L453.067 167.007ZM473.322 167.079C476.722 167.099 480.146 167.123 483.594 167.152L483.61 165.152C480.161 165.123 476.736 165.099 473.333 165.079L473.322 167.079ZM493.165 167.24C496.376 167.273 499.606 167.309 502.856 167.349L502.881 165.349C499.629 165.309 496.397 165.273 493.186 165.24L493.165 167.24ZM512.668 167.48C515.958 167.527 519.269 167.577 522.6 167.632L522.632 165.632C519.3 165.577 515.988 165.527 512.696 165.48L512.668 167.48ZM532.654 167.805C536.025 167.867 539.417 167.932 542.83 168.001L542.87 166.001C539.456 165.932 536.063 165.867 532.69 165.806L532.654 167.805ZM553.129 168.218C556.333 168.289 559.556 168.363 562.796 168.44L562.844 166.441C559.602 166.364 556.379 166.29 553.173 166.219L553.129 168.218ZM572.46 168.679C575.699 168.761 578.955 168.847 582.229 168.936L582.283 166.937C579.008 166.848 575.751 166.762 572.511 166.679L572.46 168.679ZM592.103 169.213C595.412 169.308 598.739 169.407 602.084 169.509L602.145 167.51C598.799 167.408 595.471 167.309 592.161 167.213L592.103 169.213ZM612.171 169.824C615.551 169.933 618.949 170.045 622.365 170.16L622.433 168.161C619.015 168.046 615.616 167.934 612.235 167.825L612.171 169.824ZM632.648 170.514C635.827 170.626 639.021 170.741 642.23 170.859L642.303 168.86C639.093 168.743 635.898 168.628 632.718 168.516L632.648 170.514ZM651.904 171.221C655.145 171.344 658.4 171.471 661.671 171.6L661.75 169.602C658.478 169.472 655.222 169.346 651.981 169.222L651.904 171.221ZM671.531 171.997C674.834 172.132 678.151 172.27 681.485 172.411L681.569 170.412C678.235 170.271 674.916 170.133 671.613 169.998L671.531 171.997ZM691.532 172.842C694.897 172.989 698.277 173.139 701.674 173.291L701.764 171.293C698.366 171.141 694.985 170.991 691.619 170.844L691.532 172.842ZM711.91 173.759C713.624 173.838 715.342 173.918 717.064 173.999L717.158 172.001C715.436 171.92 713.717 171.84 712.003 171.761L711.91 173.759ZM717.064 173.999C718.802 174.08 720.535 174.161 722.265 174.24L722.357 172.242C720.628 172.163 718.895 172.083 717.158 172.001L717.064 173.999ZM732.599 174.699C736.028 174.847 739.442 174.991 742.841 175.129L742.923 173.131C739.525 172.992 736.113 172.849 732.685 172.701L732.599 174.699ZM752.994 175.529C756.363 175.657 759.717 175.781 763.056 175.9L763.127 173.901C759.789 173.782 756.437 173.659 753.07 173.53L752.994 175.529ZM773.028 176.241C776.338 176.35 779.632 176.455 782.911 176.554L782.972 174.555C779.694 174.456 776.402 174.351 773.094 174.242L773.028 176.241ZM793.143 176.85C796.6 176.946 800.04 177.036 803.464 177.12L803.514 175.121C800.092 175.036 796.653 174.946 793.198 174.851L793.143 176.85ZM813.685 177.359C817.076 177.433 820.449 177.502 823.807 177.566L823.844 175.566C820.489 175.502 817.117 175.433 813.729 175.359L813.685 177.359ZM833.829 177.742C837.153 177.795 840.461 177.843 843.752 177.887L843.778 175.887C840.489 175.844 837.183 175.795 833.861 175.742L833.829 177.742ZM853.777 178.003C857.251 178.038 860.707 178.068 864.144 178.092L864.157 176.092C860.723 176.068 857.269 176.038 853.798 176.003L853.777 178.003ZM874.399 178.146C877.799 178.158 881.18 178.165 884.544 178.167L884.545 176.167C881.183 176.165 877.804 176.158 874.406 176.146L874.399 178.146ZM894.579 178.154C897.905 178.145 901.214 178.13 904.504 178.109L904.492 176.109C901.204 176.13 897.897 176.145 894.573 176.154L894.579 178.154ZM914.533 178.029C918.009 177.996 921.465 177.956 924.9 177.91L924.873 175.911C921.44 175.956 917.987 175.996 914.513 176.03L914.533 178.029ZM935.144 177.755C938.538 177.698 941.912 177.634 945.265 177.564L945.224 175.565C941.873 175.634 938.501 175.698 935.11 175.756L935.144 177.755ZM955.265 177.338C958.578 177.257 961.87 177.17 965.143 177.077L965.086 175.078C961.816 175.171 958.526 175.258 955.216 175.339L955.265 177.338ZM975.387 176.767C978.847 176.655 982.283 176.536 985.697 176.411L985.624 174.413C982.213 174.537 978.779 174.656 975.322 174.768L975.387 176.767ZM995.87 176.018C999.238 175.88 1002.58 175.736 1005.91 175.586L1005.82 173.588C1002.5 173.738 999.154 173.882 995.788 174.019L995.87 176.018ZM1015.81 175.118C1019.2 174.95 1022.57 174.776 1025.91 174.595L1025.8 172.598C1022.46 172.779 1019.1 172.953 1015.71 173.12L1015.81 175.118ZM1036.24 174.012C1039.66 173.81 1043.05 173.602 1046.42 173.387L1046.29 171.392C1042.93 171.606 1039.54 171.814 1036.12 172.015L1036.24 174.012ZM1056.44 172.723C1059.76 172.495 1063.05 172.261 1066.31 172.02L1066.17 170.025C1062.91 170.266 1059.62 170.5 1056.3 170.728L1056.44 172.723ZM1076.47 171.243C1079.93 170.969 1083.36 170.688 1086.76 170.4L1086.59 168.407C1083.2 168.695 1079.77 168.976 1076.31 169.249L1076.47 171.243ZM1096.88 169.514C1100.22 169.212 1103.54 168.902 1106.82 168.586L1106.63 166.595C1103.35 166.911 1100.04 167.22 1096.7 167.522L1096.88 169.514ZM1116.65 167.611C1120.13 167.255 1123.59 166.891 1127.01 166.519L1126.79 164.531C1123.37 164.902 1119.92 165.266 1116.44 165.622L1116.65 167.611ZM1137.17 165.381C1140.53 164.994 1143.85 164.6 1147.14 164.198L1146.9 162.213C1143.61 162.614 1140.29 163.008 1136.94 163.394L1137.17 165.381ZM1156.92 162.971C1160.38 162.525 1163.8 162.071 1167.18 161.609L1166.91 159.628C1163.53 160.089 1160.12 160.542 1156.67 160.987L1156.92 162.971ZM1177.34 160.185C1180.68 159.702 1183.99 159.211 1187.27 158.712L1186.97 156.735C1183.7 157.233 1180.39 157.723 1177.05 158.205L1177.34 160.185ZM1196.98 157.194C1200.45 156.637 1203.88 156.072 1207.27 155.497L1206.94 153.525C1203.55 154.099 1200.13 154.663 1196.66 155.219L1196.98 157.194ZM1217.32 153.747C1220.63 153.155 1223.9 152.556 1227.12 151.948L1226.75 149.982C1223.53 150.589 1220.27 151.188 1216.97 151.778L1217.32 153.747ZM1237.02 150.032C1240.44 149.352 1243.82 148.663 1247.14 147.966L1246.73 146.008C1243.41 146.705 1240.05 147.392 1236.63 148.071L1237.02 150.032ZM1256.98 145.848C1260.25 145.124 1263.47 144.393 1266.64 143.653L1266.19 141.705C1263.02 142.443 1259.81 143.173 1256.54 143.895L1256.98 145.848ZM1276.76 141.226C1280.07 140.409 1283.33 139.582 1286.54 138.747L1286.03 136.811C1282.84 137.644 1279.59 138.469 1276.28 139.285L1276.76 141.226ZM1296.12 136.182C1299.52 135.246 1302.85 134.301 1306.12 133.347L1305.56 131.427C1302.3 132.378 1298.98 133.32 1295.59 134.254L1296.12 136.182ZM1315.73 130.458C1319.01 129.445 1322.21 128.424 1325.35 127.394L1324.73 125.493C1321.6 126.52 1318.41 127.538 1315.14 128.547L1315.73 130.458ZM1335.08 124.096C1338.25 122.989 1341.34 121.873 1344.36 120.749L1343.66 118.875C1340.66 119.994 1337.58 121.105 1334.42 122.209L1335.08 124.096ZM1354.07 117.007C1357.24 115.744 1360.31 114.473 1363.3 113.196L1362.52 111.357C1359.54 112.628 1356.48 113.893 1353.33 115.15L1354.07 117.007ZM1372.7 109.026C1375.82 107.587 1378.83 106.141 1381.74 104.689L1380.85 102.9C1377.96 104.341 1374.96 105.779 1371.86 107.21L1372.7 109.026ZM1390.86 99.9408C1393.86 98.3031 1396.74 96.6611 1399.5 95.0172L1398.47 93.3001C1395.74 94.9298 1392.89 96.5587 1389.9 98.1843L1390.86 99.9408ZM1408.27 89.4903C1411.2 87.5448 1413.95 85.6001 1416.54 83.6601L1415.34 82.0598C1412.79 83.9761 1410.06 85.8991 1407.17 87.8249L1408.27 89.4903ZM1424.37 77.3785C1427.12 75.0083 1429.63 72.651 1431.9 70.3138L1430.47 68.9195C1428.24 71.2117 1425.77 73.5289 1423.07 75.8636L1424.37 77.3785ZM1438.64 62.5843C1440.88 59.6874 1442.75 56.8338 1444.29 54.0383L1442.54 53.0754C1441.06 55.7719 1439.24 58.5393 1437.06 61.3623L1438.64 62.5843ZM1448.27 44.6017C1449.32 41.0009 1449.77 37.5379 1449.66 34.2548L1447.67 34.3194C1447.76 37.3726 1447.35 40.625 1446.35 44.0426L1448.27 44.6017ZM1447.33 24.0959C1445.9 20.9508 1443.84 18.1153 1441.24 15.6432L1439.86 17.0917C1442.29 19.399 1444.19 22.0274 1445.51 24.9248L1447.33 24.0959ZM1432.65 9.72412C1429.73 8.27714 1426.49 7.10979 1422.98 6.2487L1422.5 8.19116C1425.89 9.02058 1428.98 10.14 1431.76 11.516L1432.65 9.72412ZM1412.84 4.6855C1411.14 4.56256 1409.4 4.5 1407.61 4.5V6.5C1409.35 6.5 1411.05 6.56093 1412.7 6.68029L1412.84 4.6855Z" fill="#75B72A"/>
</svg>
