<svg width="12" height="48" viewBox="0 0 12 48" fill="none" xmlns="http://www.w3.org/2000/svg">
<path d="M6 0.666667C3.05448 0.666667 0.666666 3.05448 0.666667 6C0.666667 8.94552 3.05448 11.3333 6 11.3333C8.94552 11.3333 11.3333 8.94552 11.3333 6C11.3333 3.05448 8.94552 0.666666 6 0.666667ZM6 36.6667C3.05448 36.6667 0.666668 39.0545 0.666668 42C0.666668 44.9455 3.05448 47.3333 6 47.3333C8.94552 47.3333 11.3333 44.9455 11.3333 42C11.3333 39.0545 8.94552 36.6667 6 36.6667ZM5 6L5 10.5L7 10.5L7 6L5 6ZM5 19.5L5 28.5L7 28.5L7 19.5L5 19.5ZM5 37.5L5 42L7 42L7 37.5L5 37.5Z" fill="#75B72A"/>
</svg>
