<svg width="94" height="12" viewBox="0 0 94 12" fill="none" xmlns="http://www.w3.org/2000/svg">
<path d="M0.777995 6C0.777995 8.94552 3.16581 11.3333 6.11133 11.3333C9.05685 11.3333 11.4447 8.94552 11.4447 6C11.4447 3.05448 9.05685 0.666667 6.11133 0.666667C3.16581 0.666667 0.777995 3.05448 0.777995 6ZM82.778 6C82.778 8.94552 85.1658 11.3333 88.1113 11.3333C91.0568 11.3333 93.4447 8.94552 93.4447 6C93.4447 3.05448 91.0568 0.666667 88.1113 0.666667C85.1658 0.666667 82.778 3.05448 82.778 6ZM6.11133 7H11.2363V5H6.11133V7ZM21.4863 7H31.7363V5H21.4863V7ZM41.9863 7H52.2363V5H41.9863V7ZM62.4863 7H72.7363V5H62.4863V7ZM82.9863 7H88.1113V5H82.9863V7Z" fill="#75B72A"/>
</svg>
