<svg width="100" height="29" fill="none" xmlns="http://www.w3.org/2000/svg"><path d="M98.986 17.62c1.352-.676 1.352-2.873 0-3.55C88.505 8.324 77.856 3.084 66.36.04c-1.69-.338-3.381 1.522-2.367 3.043 2.367 3.38 5.24 6.254 8.621 8.79-23.665-.676-48.176-3.888-71.504 1.69-1.69.338-1.352 3.212.339 3.043 24.172-3.043 48.176-.676 72.349-.338-2.536 2.873-5.071 5.747-7.607 8.452-1.183 1.183-.507 3.719 1.521 3.55 11.157-1.353 21.637-5.072 31.273-10.65zM78.87 15.761c1.521-1.014 1.183-3.888-1.184-3.888h-.338c-2.028-2.028-4.057-3.888-6.085-6.085 7.776 2.704 15.044 6.085 22.313 9.973-6.592 3.38-13.354 5.916-20.623 7.268 1.69-1.859 3.381-3.887 5.24-5.747.677-.338.846-1.014.677-1.521z" fill="#2F97EB"/></svg>