<svg width="140" height="140" fill="none" xmlns="http://www.w3.org/2000/svg"><g filter="url(#filter0_d_191_34)"><rect x="30" y="20" width="80" height="80" rx="20" fill="#95CF62"/><rect x="30" y="20" width="80" height="80" rx="20" fill="url(#paint0_linear_191_34)" fill-opacity=".3"/><path d="M87.684 77.539h-.44l-1.49-18.037a2.888 2.888 0 00-2.862-2.635h-1.36a4.89 4.89 0 01-.663 2.461h2.023c.212 0 .391.165.408.377l.376 4.545h-8.391l.203-2.46h-2.47l-1.3 15.749h-.44a1.23 1.23 0 000 2.461h3.28a1.23 1.23 0 000-2.461h-.371l.895-10.828h8.797l.895 10.828h-.372a1.23 1.23 0 000 2.461h3.282a1.23 1.23 0 000-2.461zm-34.454-.084a2.46 2.46 0 003.363-.9l.329-.571V66.14l-4.592 7.953a2.461 2.461 0 00.9 3.362z" fill="#fff"/><path d="M79.07 56.867a2.46 2.46 0 00-2.46-2.46h-4.922v-5.984a6.973 6.973 0 01-3.177-7.105 3.717 3.717 0 00-.515-.037c-6.116 0-11.074 4.958-11.074 11.074v4.922c0 .267.086.526.246.739l2.215 2.953v16.519c0 1.34 1.051 2.474 2.392 2.511a2.461 2.461 0 002.53-2.46V52.8c0-.662.509-1.232 1.17-1.264a1.23 1.23 0 011.29 1.23v4.49c0 1.1.9 2.022 2 2.05l7.844.022a2.46 2.46 0 002.461-2.46zm-3.691-9.844a4.512 4.512 0 100-9.023 4.512 4.512 0 000 9.023z" fill="#fff"/></g><defs><linearGradient id="paint0_linear_191_34" x1="42" y1="28" x2="90.5" y2="93.5" gradientUnits="userSpaceOnUse"><stop stop-color="#fff"/><stop offset="1" stop-color="#fff" stop-opacity="0"/></linearGradient><filter id="filter0_d_191_34" x="0" y="0" width="140" height="140" filterUnits="userSpaceOnUse" color-interpolation-filters="sRGB"><feFlood flood-opacity="0" result="BackgroundImageFix"/><feColorMatrix in="SourceAlpha" values="0 0 0 0 0 0 0 0 0 0 0 0 0 0 0 0 0 0 127 0" result="hardAlpha"/><feOffset dy="10"/><feGaussianBlur stdDeviation="15"/><feComposite in2="hardAlpha" operator="out"/><feColorMatrix values="0 0 0 0 0.444157 0 0 0 0 0.811765 0 0 0 0 0.384314 0 0 0 0.35 0"/><feBlend in2="BackgroundImageFix" result="effect1_dropShadow_191_34"/><feBlend in="SourceGraphic" in2="effect1_dropShadow_191_34" result="shape"/></filter></defs></svg>