<svg width="29" height="43" fill="none" xmlns="http://www.w3.org/2000/svg"><path d="M9.802.114c-2.316 0-4.2 1.909-4.2 4.255s1.884 4.255 4.2 4.255c2.316 0 4.2-1.909 4.2-4.255S12.118.114 9.802.114zm12.424 34.052c.108-.301.167-.622.167-.96v-7.564c0-1.564-1.247-2.837-2.79-2.837h-8.64l.119-1.529c.15-1.94.11-2.762.11-6.98 0-2.329-2.707-3.754-4.583-2.15-.193.169-1.283 1.243-5.376 5.402C.51 18.283 0 18.827 0 19.97c0 .757.292 1.469.822 2.006l3.914 3.963C3.822 29.641 2.65 34.945.474 38.251a2.851 2.851 0 00.774 3.932 2.78 2.78 0 003.885-.786c2.478-3.765 3.733-9.282 4.767-12.919h6.915l-.013 4.728c0 .333.068.648.172.945h-.638c-3.86 0-7 3.181-7 7.091a1.41 1.41 0 001.4 1.419h16.8c.772 0 1.4-.635 1.4-1.419 0-3.81-2.985-6.92-6.71-7.076zm-9.85 5.658c.577-1.65 2.134-2.836 3.96-2.836h5.6c1.825 0 3.382 1.185 3.96 2.836h-13.52z" fill="#fff"/></svg>