<svg width="140" height="140" fill="none" xmlns="http://www.w3.org/2000/svg"><g filter="url(#filter0_d_191_35)"><rect x="30" y="20" width="80" height="80" rx="20" fill="#95CF62"/><rect x="30" y="20" width="80" height="80" rx="20" fill="url(#paint0_linear_191_35)" fill-opacity=".3"/><path d="M70.327 46.217a1.37 1.37 0 100-2.739 1.37 1.37 0 000 2.74zm2.904 13.294a1.37 1.37 0 00-1.937.001c-.516.517-1.42.517-1.935 0a1.37 1.37 0 00-1.938 1.936 4.081 4.081 0 002.906 1.204 4.08 4.08 0 002.906-1.204 1.37 1.37 0 00-.002-1.937z" fill="#fff"/><path d="M82.652 58.544V44.848A6.855 6.855 0 0075.804 38H64.848A6.855 6.855 0 0058 44.848v13.696c0 4.82 3.577 8.822 8.217 9.489V69.5c0 .755-.614 1.37-1.37 1.37H62.11A4.113 4.113 0 0058 74.978v3.652c0 .757.614 1.37 1.37 1.37h21.913a1.37 1.37 0 001.37-1.37v-3.652a4.113 4.113 0 00-4.11-4.108h-2.739c-.755 0-1.37-.615-1.37-1.37v-1.467c4.64-.667 8.218-4.668 8.218-9.49zM70.326 40.739a4.113 4.113 0 014.109 4.109 4.113 4.113 0 01-4.109 4.108 4.113 4.113 0 01-4.109-4.108 4.113 4.113 0 014.11-4.109zm2.74 24.652a1.37 1.37 0 00-1.37 1.37V69.5c0 .632.155 1.225.411 1.76l-1.78 1.781-1.782-1.78a4.063 4.063 0 00.412-1.761v-2.74a1.37 1.37 0 00-1.37-1.369 6.855 6.855 0 01-6.848-6.848v-6.847h19.174v6.848a6.855 6.855 0 01-6.848 6.847z" fill="#fff"/></g><defs><linearGradient id="paint0_linear_191_35" x1="42" y1="28" x2="90.5" y2="93.5" gradientUnits="userSpaceOnUse"><stop stop-color="#fff"/><stop offset="1" stop-color="#fff" stop-opacity="0"/></linearGradient><filter id="filter0_d_191_35" x="0" y="0" width="140" height="140" filterUnits="userSpaceOnUse" color-interpolation-filters="sRGB"><feFlood flood-opacity="0" result="BackgroundImageFix"/><feColorMatrix in="SourceAlpha" values="0 0 0 0 0 0 0 0 0 0 0 0 0 0 0 0 0 0 127 0" result="hardAlpha"/><feOffset dy="10"/><feGaussianBlur stdDeviation="15"/><feComposite in2="hardAlpha" operator="out"/><feColorMatrix values="0 0 0 0 0.444157 0 0 0 0 0.811765 0 0 0 0 0.384314 0 0 0 0.35 0"/><feBlend in2="BackgroundImageFix" result="effect1_dropShadow_191_35"/><feBlend in="SourceGraphic" in2="effect1_dropShadow_191_35" result="shape"/></filter></defs></svg>