<svg width="140" height="140" fill="none" xmlns="http://www.w3.org/2000/svg"><g filter="url(#filter0_d_191_15)"><rect x="30" y="20" width="80" height="80" rx="20" fill="#95CF62"/><rect x="30" y="20" width="80" height="80" rx="20" fill="url(#paint0_linear_191_15)" fill-opacity=".3"/><path d="M67.802 40.114c-2.316 0-4.2 1.909-4.2 4.255s1.884 4.255 4.2 4.255c2.316 0 4.2-1.909 4.2-4.255s-1.884-4.255-4.2-4.255zm12.424 34.052c.108-.301.167-.622.167-.96v-7.564c0-1.564-1.247-2.836-2.79-2.836h-8.64l.119-1.53c.15-1.94.11-2.763.11-6.98 0-2.329-2.707-3.754-4.583-2.15-.193.169-1.283 1.243-5.376 5.402C58.51 58.283 58 58.827 58 59.97c0 .757.292 1.469.822 2.005l3.913 3.964c-.914 3.702-2.086 9.006-4.262 12.312a2.851 2.851 0 00.774 3.932 2.78 2.78 0 003.885-.786c2.478-3.765 3.733-9.282 4.767-12.919h6.915l-.013 4.728c0 .333.068.648.172.945h-.638c-3.86 0-7 3.181-7 7.091a1.41 1.41 0 001.4 1.418h16.8c.772 0 1.4-.634 1.4-1.418 0-3.81-2.985-6.92-6.71-7.076zm-9.85 5.658c.577-1.65 2.134-2.836 3.96-2.836h5.6c1.825 0 3.382 1.185 3.96 2.836h-13.52z" fill="#fff"/></g><defs><linearGradient id="paint0_linear_191_15" x1="42" y1="28" x2="90.5" y2="93.5" gradientUnits="userSpaceOnUse"><stop stop-color="#fff"/><stop offset="1" stop-color="#fff" stop-opacity="0"/></linearGradient><filter id="filter0_d_191_15" x="0" y="0" width="140" height="140" filterUnits="userSpaceOnUse" color-interpolation-filters="sRGB"><feFlood flood-opacity="0" result="BackgroundImageFix"/><feColorMatrix in="SourceAlpha" values="0 0 0 0 0 0 0 0 0 0 0 0 0 0 0 0 0 0 127 0" result="hardAlpha"/><feOffset dy="10"/><feGaussianBlur stdDeviation="15"/><feComposite in2="hardAlpha" operator="out"/><feColorMatrix values="0 0 0 0 0.444157 0 0 0 0 0.811765 0 0 0 0 0.384314 0 0 0 0.35 0"/><feBlend in2="BackgroundImageFix" result="effect1_dropShadow_191_15"/><feBlend in="SourceGraphic" in2="effect1_dropShadow_191_15" result="shape"/></filter></defs></svg>