<svg width="37" height="42" fill="none" xmlns="http://www.w3.org/2000/svg"><path d="M35.684 39.539h-.44l-1.49-18.037a2.888 2.888 0 00-2.862-2.635h-1.36a4.89 4.89 0 01-.663 2.461h2.023c.212 0 .391.165.408.377l.376 4.545h-8.391l.203-2.46h-2.47l-1.3 15.749h-.44a1.23 1.23 0 000 2.461h3.28a1.23 1.23 0 000-2.461h-.371l.894-10.828h8.799l.894 10.828h-.372a1.23 1.23 0 000 2.461h3.282a1.23 1.23 0 000-2.461zM1.23 39.455a2.46 2.46 0 003.363-.9l.329-.571V28.14L.33 36.093a2.46 2.46 0 00.9 3.362z" fill="#fff"/><path d="M27.07 18.867a2.46 2.46 0 00-2.46-2.46h-4.922v-5.984a6.973 6.973 0 01-3.177-7.105 3.723 3.723 0 00-.515-.037C9.88 3.281 4.922 8.24 4.922 14.355v4.922c0 .267.086.526.246.738l2.215 2.954v16.519c0 1.34 1.051 2.474 2.392 2.511a2.461 2.461 0 002.53-2.46V14.8c0-.662.509-1.232 1.17-1.264a1.23 1.23 0 011.29 1.23v4.49c0 1.1.9 2.022 2 2.05l7.844.022a2.46 2.46 0 002.461-2.46zm-3.691-9.844a4.512 4.512 0 100-9.023 4.512 4.512 0 000 9.023z" fill="#fff"/></svg>