<svg width="25" height="42" fill="none" xmlns="http://www.w3.org/2000/svg"><path d="M12.327 8.217a1.37 1.37 0 100-2.739 1.37 1.37 0 000 2.74zm2.905 13.294a1.37 1.37 0 00-1.938.001c-.516.517-1.42.517-1.935 0a1.37 1.37 0 00-1.938 1.936 4.081 4.081 0 002.906 1.204 4.08 4.08 0 002.905-1.204 1.37 1.37 0 000-1.937z" fill="#fff"/><path d="M24.652 20.544V6.848A6.855 6.855 0 0017.804 0H6.848A6.855 6.855 0 000 6.848v13.696c0 4.82 3.577 8.822 8.217 9.489V31.5c0 .755-.614 1.37-1.37 1.37H4.11A4.113 4.113 0 000 36.977v3.652A1.37 1.37 0 001.37 42h21.913a1.37 1.37 0 001.37-1.37v-3.652a4.113 4.113 0 00-4.11-4.108h-2.739c-.755 0-1.37-.615-1.37-1.37v-1.467c4.64-.667 8.218-4.668 8.218-9.49zM12.326 2.739a4.113 4.113 0 014.109 4.109 4.113 4.113 0 01-4.109 4.109 4.113 4.113 0 01-4.109-4.11 4.113 4.113 0 014.11-4.108zm2.74 24.652a1.37 1.37 0 00-1.37 1.37V31.5c0 .632.155 1.225.411 1.76l-1.78 1.782-1.782-1.782a4.063 4.063 0 00.412-1.76v-2.74a1.37 1.37 0 00-1.37-1.369 6.855 6.855 0 01-6.848-6.847v-6.848h19.174v6.848a6.855 6.855 0 01-6.848 6.847z" fill="#fff"/></svg>