<svg width="100" height="29" viewBox="0 0 100 29" fill="none" xmlns="http://www.w3.org/2000/svg">
<path d="M98.9855 17.6204C100.338 16.9443 100.338 14.7467 98.9855 14.0706C88.505 8.32322 77.8555 3.08297 66.3608 0.0402463C64.6703 -0.297834 62.9799 1.56161 63.9942 3.08297C66.3608 6.46378 69.2344 9.33746 72.6152 11.8731C48.9496 11.1969 24.4388 7.98514 1.11123 13.5635C-0.579171 13.9015 -0.241097 16.775 1.44958 16.6059C25.6223 13.5635 49.626 15.93 73.7988 16.2678C71.2632 19.1415 68.7276 22.0152 66.192 24.7198C65.0087 25.9031 65.6849 28.439 67.7134 28.27C78.8697 26.9174 89.3502 23.1985 98.9855 17.6204ZM78.8697 15.761C80.3911 14.7467 80.053 11.8731 77.6864 11.8731C77.5174 11.8731 77.3484 11.8731 77.3484 11.8731C75.3199 9.84458 73.2914 7.98514 71.2629 5.78761C79.0388 8.49226 86.3075 11.8731 93.5762 15.7607C86.9837 19.1415 80.2221 21.6771 72.9533 23.0294C74.6437 21.17 76.3341 19.1415 78.1936 17.2818C78.8697 16.9443 79.0388 16.2678 78.8697 15.761Z" fill="#2F97EB"/>
</svg>
